<?xml version="1.0" standalone="no"?>
<!DOCTYPE svg PUBLIC "-//W3C//DTD SVG 1.1//EN" "http://www.w3.org/Graphics/SVG/1.1/DTD/svg11.dtd" >
<svg xmlns="http://www.w3.org/2000/svg">
<metadata>Generated by IcoMoon</metadata>
<defs>
<font id="icomoon" horiz-adv-x="1024">
<font-face units-per-em="1024" ascent="960" descent="-64" />
<missing-glyph horiz-adv-x="1024" />
<glyph unicode="&#x20;" horiz-adv-x="512" d="" />
<glyph unicode="&#xe900;" glyph-name="apps" d="M469.336 490.664h-469.336v341.336c0 70.687 57.313 128 128 128v0h341.336zM85.336 576h298.664v298.664h-256c-23.566 0-42.664-19.105-42.664-42.664v0zM1024 490.664h-469.336v469.336h341.336c70.687 0 128-57.313 128-128v0zM640 576h298.664v256c0 23.566-19.105 42.664-42.664 42.664v0h-256zM469.336-64h-341.336c-70.687 0-128 57.313-128 128v0 341.336h469.336zM85.336 320v-256c0-23.566 19.105-42.664 42.664-42.664v0h256v298.664zM896-64h-341.336v469.336h469.336v-341.336c0-70.687-57.313-128-128-128v0zM640 21.336h256c23.566 0 42.664 19.105 42.664 42.664v0 256h-298.664z" />
<glyph unicode="&#xe901;" glyph-name="apps_outline" d="M137.846 960c-75.685 0-137.846-62.161-137.846-137.846s62.161-137.846 137.846-137.846c75.685 0 137.846 62.161 137.846 137.846s-62.161 137.846-137.846 137.846zM137.846 881.231c33.41 0 59.077-25.666 59.077-59.077s-25.666-59.077-59.077-59.077c-33.41 0-59.077 25.666-59.077 59.077s25.666 59.077 59.077 59.077zM512 960c-75.685 0-137.846-62.161-137.846-137.846s62.161-137.846 137.846-137.846c75.685 0 137.846 62.161 137.846 137.846s-62.161 137.846-137.846 137.846zM512 881.231c33.41 0 59.077-25.666 59.077-59.077s-25.666-59.077-59.077-59.077c-33.41 0-59.077 25.666-59.077 59.077s25.666 59.077 59.077 59.077zM886.154 960c-75.685 0-137.846-62.161-137.846-137.846s62.161-137.846 137.846-137.846c75.685 0 137.846 62.161 137.846 137.846s-62.161 137.846-137.846 137.846zM886.154 881.231c33.41 0 59.077-25.666 59.077-59.077s-25.666-59.077-59.077-59.077c-33.41 0-59.077 25.666-59.077 59.077s25.666 59.077 59.077 59.077zM137.846 585.846c-75.685 0-137.846-62.161-137.846-137.846s62.161-137.846 137.846-137.846c75.685 0 137.846 62.161 137.846 137.846s-62.161 137.846-137.846 137.846zM137.846 507.077c33.41 0 59.077-25.666 59.077-59.077s-25.666-59.077-59.077-59.077c-33.41 0-59.077 25.666-59.077 59.077s25.666 59.077 59.077 59.077zM512 585.846c-75.685 0-137.846-62.161-137.846-137.846s62.161-137.846 137.846-137.846c75.685 0 137.846 62.161 137.846 137.846s-62.161 137.846-137.846 137.846zM512 507.077c33.41 0 59.077-25.666 59.077-59.077s-25.666-59.077-59.077-59.077c-33.41 0-59.077 25.666-59.077 59.077s25.666 59.077 59.077 59.077zM886.154 585.846c-75.685 0-137.846-62.161-137.846-137.846s62.161-137.846 137.846-137.846c75.685 0 137.846 62.161 137.846 137.846s-62.161 137.846-137.846 137.846zM886.154 507.077c33.41 0 59.077-25.666 59.077-59.077s-25.666-59.077-59.077-59.077c-33.41 0-59.077 25.666-59.077 59.077s25.666 59.077 59.077 59.077zM137.846 211.692c-75.685 0-137.846-62.161-137.846-137.846s62.161-137.846 137.846-137.846c75.685 0 137.846 62.161 137.846 137.846s-62.161 137.846-137.846 137.846zM137.846 132.923c33.41 0 59.077-25.666 59.077-59.077s-25.666-59.077-59.077-59.077c-33.41 0-59.077 25.666-59.077 59.077s25.666 59.077 59.077 59.077zM512 211.692c-75.685 0-137.846-62.161-137.846-137.846s62.161-137.846 137.846-137.846c75.685 0 137.846 62.161 137.846 137.846s-62.161 137.846-137.846 137.846zM512 132.923c33.41 0 59.077-25.666 59.077-59.077s-25.666-59.077-59.077-59.077c-33.41 0-59.077 25.666-59.077 59.077s25.666 59.077 59.077 59.077zM886.154 211.692c-75.685 0-137.846-62.161-137.846-137.846s62.161-137.846 137.846-137.846c75.685 0 137.846 62.161 137.846 137.846s-62.161 137.846-137.846 137.846zM886.154 132.923c33.41 0 59.077-25.666 59.077-59.077s-25.666-59.077-59.077-59.077c-33.41 0-59.077 25.666-59.077 59.077s25.666 59.077 59.077 59.077z" />
<glyph unicode="&#xe902;" glyph-name="apps_solid" d="M19.692 960h236.308c10.91 0 19.692-8.783 19.692-19.692v-236.308c0-10.91-8.783-19.692-19.692-19.692h-236.308c-10.91 0-19.692 8.783-19.692 19.692v236.308c0 10.91 8.783 19.692 19.692 19.692zM393.846 960h236.308c10.91 0 19.692-8.783 19.692-19.692v-236.308c0-10.91-8.783-19.692-19.692-19.692h-236.308c-10.91 0-19.692 8.783-19.692 19.692v236.308c0 10.91 8.783 19.692 19.692 19.692zM768 960h236.308c10.91 0 19.692-8.783 19.692-19.692v-236.308c0-10.91-8.783-19.692-19.692-19.692h-236.308c-10.91 0-19.692 8.783-19.692 19.692v236.308c0 10.91 8.783 19.692 19.692 19.692zM19.692 585.846h236.308c10.91 0 19.692-8.783 19.692-19.692v-236.308c0-10.91-8.783-19.692-19.692-19.692h-236.308c-10.91 0-19.692 8.783-19.692 19.692v236.308c0 10.91 8.783 19.692 19.692 19.692zM393.846 585.846h236.308c10.91 0 19.692-8.783 19.692-19.692v-236.308c0-10.91-8.783-19.692-19.692-19.692h-236.308c-10.91 0-19.692 8.783-19.692 19.692v236.308c0 10.91 8.783 19.692 19.692 19.692zM768 585.846h236.308c10.91 0 19.692-8.783 19.692-19.692v-236.308c0-10.91-8.783-19.692-19.692-19.692h-236.308c-10.91 0-19.692 8.783-19.692 19.692v236.308c0 10.91 8.783 19.692 19.692 19.692zM19.692 211.692h236.308c10.91 0 19.692-8.783 19.692-19.692v-236.308c0-10.91-8.783-19.692-19.692-19.692h-236.308c-10.91 0-19.692 8.783-19.692 19.692v236.308c0 10.91 8.783 19.692 19.692 19.692zM393.846 211.692h236.308c10.91 0 19.692-8.783 19.692-19.692v-236.308c0-10.91-8.783-19.692-19.692-19.692h-236.308c-10.91 0-19.692 8.783-19.692 19.692v236.308c0 10.91 8.783 19.692 19.692 19.692zM768 211.692h236.308c10.91 0 19.692-8.783 19.692-19.692v-236.308c0-10.91-8.783-19.692-19.692-19.692h-236.308c-10.91 0-19.692 8.783-19.692 19.692v236.308c0 10.91 8.783 19.692 19.692 19.692z" />
<glyph unicode="&#xe903;" glyph-name="arrow_back" d="M747.093 794.88l-75.947 75.52-421.973-422.4 422.4-422.4 75.52 75.52-346.88 346.88 346.88 346.88z" />
<glyph unicode="&#xe904;" glyph-name="arrow_down" d="M853.333 448l-60.16 60.16-238.507-238.080v519.253h-85.333v-519.253l-238.080 238.507-60.587-60.587 341.333-341.333 341.333 341.333z" />
<glyph unicode="&#xe905;" glyph-name="arrow_forward" d="M265.813 96.853l75.52-75.52 426.667 426.667-426.667 426.667-75.52-75.52 351.147-351.147z" />
<glyph unicode="&#xe906;" glyph-name="arrow_left" d="M853.333 490.667h-519.253l238.507 238.507-60.587 60.16-341.333-341.333 341.333-341.333 60.16 60.16-238.080 238.507h519.253v85.333z" />
<glyph unicode="&#xe907;" glyph-name="arrow_right" d="M512 789.333l-60.16-60.16 238.080-238.507h-519.253v-85.333h519.253l-238.080-238.507 60.16-60.16 341.333 341.333-341.333 341.333z" />
<glyph unicode="&#xe908;" glyph-name="arrow_upward" d="M170.667 448l60.16-60.16 238.507 238.080v-519.253h85.333v519.253l238.080-238.507 60.587 60.587-341.333 341.333-341.333-341.333z" />
<glyph unicode="&#xe909;" glyph-name="bars" d="M0 832v-85.333h1024v85.333zM0 490.667v-85.333h1024v85.333zM0 149.333v-85.333h1024v85.333z" />
<glyph unicode="&#xe90a;" glyph-name="behance" d="M408.699 551.553c0 40.451-31.315 50.049-66.093 50.049h-90.5v-102.4h97.575c34.519 0 59.003 15.105 59.003 52.351zM711.086 498.513c-41.814 0-69.721-26.066-72.448-67.881h142.169c-3.886 42.277-25.808 67.881-69.721 67.881zM357.030 426.283h-105.128v-120.913h103.082c39.343 0 71.343 13.946 71.343 58.063-0.038 45.018-26.801 62.631-69.295 62.851zM842.668 947.199h-661.336c-100.264 0-181.332-81.069-181.332-181.332v-635.732c0-100.264 81.069-181.332 181.332-181.332h661.336c100.264 0 181.332 81.069 181.332 181.332v635.732c0 100.264-81.069 181.332-181.332 181.332zM621.013 653.482h177.833v-43.178h-177.833v43.178zM368.209 230.398h-212.777v438.87h206.846c75.223 0 140.329-21.247 140.329-108.545 0-44.117-20.561-65.836-59.904-84.568 53.935-15.319 80.001-62.889 80.001-117.967 0.038-89.174-74.713-127.322-154.494-127.785zM867.886 375.552h-229.038c0-50.731 26.748-80.683 77.955-80.683 26.49 0 60.586 14.165 69.040 41.391h77.016c-23.763-72.914-72.914-106.967-148.783-106.967-100.097 0-162.521 67.881-162.521 166.871 0 95.53 65.615 168.197 162.521 168.197 99.415 0 154.494-78.38 154.494-172.326 0-5.507-0.468-11.218-0.682-16.468z" />
<glyph unicode="&#xe90b;" glyph-name="cake" d="M1023.989 21.346h-85.335v426.654c0 70.686-57.311 127.997-127.997 127.997v0h-255.994v136.79c38.885 16.98 65.574 55.097 65.574 99.451 0 0.001 0 0.002 0 0.004v0c0 59.775-108.247 147.748-108.247 147.748s-108.247-87.973-108.247-147.748c0-0.001 0-0.002 0-0.002 0-44.355 26.687-82.47 64.878-99.176l0.695-0.274v-136.79h-255.994c-70.686 0-127.997-57.311-127.997-127.997v0-426.654h-85.335v-85.335h1023.977zM213.343 490.662h597.324c23.566 0 42.662-19.104 42.662-42.662v0-127.14c-39.935 4.263-63.999 29.862-63.999 41.816h-85.335c0-14.631-29.094-42.662-74.661-42.662-46.463 0-74.661 29.606-74.661 42.662h-85.335c0-14.631-29.094-42.662-74.661-42.662-46.463 0-74.661 29.606-74.661 42.662h-85.335c0-13.44-24.703-37.887-63.999-41.855v127.19c0 23.566 19.104 42.662 42.662 42.662v0zM170.671 235.564c40.937 1.874 77.937 17.35 106.913 41.978l-0.252-0.213c31.647-26.526 72.798-42.63 117.721-42.63 44.569 0 85.424 15.854 117.25 42.234l-0.302-0.244c31.519-26.137 72.38-41.99 116.948-41.99 44.915 0 86.071 16.105 118.002 42.86l-0.288-0.23c28.728-24.41 65.729-39.869 106.274-41.71l0.385-0.017v-214.267h-682.648z" />
<glyph unicode="&#xe90c;" glyph-name="calendar1" d="M870.401 857.6h-51.2v102.4h-102.4v-102.4h-409.6v102.4h-102.4v-102.4h-51.2c-56.832 0-101.889-46.080-101.889-102.4l-0.512-716.801c0-56.32 45.568-102.4 102.4-102.4h716.801c56.32 0 102.4 46.080 102.4 102.4v716.801c0 56.32-46.080 102.4-102.4 102.4zM870.401 38.4h-716.801v512.001h716.801v-512.001zM870.401 652.801h-716.801v102.4h716.801v-102.4zM358.4 345.6h-102.4v102.4h102.4v-102.4zM563.2 345.6h-102.4v102.4h102.4v-102.4zM768 345.6h-102.4v102.4h102.4v-102.4zM358.4 140.8h-102.4v102.4h102.4v-102.4zM563.2 140.8h-102.4v102.4h102.4v-102.4zM768 140.8h-102.4v102.4h102.4v-102.4z" />
<glyph unicode="&#xe90d;" glyph-name="calendar2" d="M256 499.2h102.4v-102.4h-102.4v102.4zM972.801 755.2v-716.801c0-56.32-46.080-102.4-102.4-102.4h-716.801c-56.832 0-102.4 46.080-102.4 102.4l0.512 716.801c0 56.32 45.056 102.4 101.889 102.4h51.2v102.4h102.4v-102.4h409.6v102.4h102.4v-102.4h51.2c56.32 0 102.4-46.080 102.4-102.4zM153.599 652.801h716.801v102.4h-716.801v-102.4zM870.401 38.4v512.001h-716.801v-512.001h716.801zM665.6 396.8h102.4v102.4h-102.4v-102.4zM460.8 396.8h102.4v102.4h-102.4v-102.4z" />
<glyph unicode="&#xe90e;" glyph-name="call1" d="M201.629 959.721c-9.051 0.305-17.625-1.648-23.215-3.678-7.455-2.708-11.764-5.054-16.787-7.142l-0.071-0.031-0.075-0.031c-22.654-9.531-44.387-21.119-64.928-34.616l-0.080-0.049-0.075-0.054c-39.146-26.008-66.714-52.952-83.939-89.76-21.71-46.391-22.567-128.954 53.809-267.702 74.237-134.863 129.562-208.125 237.359-315.62 108.427-108.124 194.693-168.355 315.843-236.301l0.018-0.009c76.623-42.915 131.815-61.672 175.033-67.062s75.185 4.738 93.464 13.253c36.787 17.136 63.93 44.519 90.032 83.733l0.040 0.063 0.040 0.058c13.539 20.519 25.158 42.241 34.709 64.892l0.023 0.054 0.023 0.058c2.090 5 4.446 9.292 7.168 16.752s5.294 20.253 2.545 32.389c-5.5 24.27-18.745 34.75-38.927 55.135l-0.032 0.032c-44.556 44.893-129.995 94.967-176.319 118.327l-0.009 0.005h-0.009c-27.77 13.988-45.613 25.446-72.744 25.474s-46.621-14.123-69.267-30.946l-0.009-0.009c-15.629-11.617-27.001-20.715-34.482-24.608s-9.435-4.642-18.622-2.683c-8.61 1.836-34.672 12.406-63.241 30.201s-61.307 42.677-91.532 72.807c-30.216 30.12-55.795 63.416-74.235 92.554s-29.607 56.089-31.308 64.014c-1.935 9.010-1.218 10.723 2.723 18.199s13.178 18.937 24.795 34.754c15.941 21.704 29.204 41.903 29.162 68.070s-10.391 44.606-23.372 72.521l-0.009 0.014-0.005 0.018c-22.933 49.195-74.56 132.994-119.201 176.938l-0.054 0.054c-20.359 20.116-30.895 33.336-55.117 38.798-3.030 0.683-6.102 1.036-9.119 1.138zM195.858 884.045c3.837-2.958 10.064-7.843 18.667-16.342l0.026-0.026 0.026-0.023c28.752-28.287 86.93-118.586 104.257-155.759 12.828-27.59 16.536-40.349 16.538-41.776s-0.698-5.229-14.972-24.662c-9.818-13.366-21.127-26.061-30.549-43.935-9.423-17.875-14.886-42.705-9.53-67.655 5.589-26.036 19.743-54.166 41.012-87.774s49.783-70.725 84.403-105.235c34.611-34.501 71.317-62.423 104.498-83.091s61.183-34.219 86.648-39.65c24.889-5.308 49.647-0.030 67.642 9.338s30.856 20.756 44.342 30.782l0.005 0.005c20.998 15.6 25.621 16.515 25.572 16.515s12.158-3.668 39.923-17.653c38.975-19.657 129.306-76.302 157.331-104.538 8.456-8.545 13.328-14.737 16.297-18.578-0.98-2.204-1.208-2.622-2.58-5.901-7.805-18.508-17.3-36.258-28.362-53.023-0.002-0.002-0.002-0.007-0.005-0.009-22.52-33.813-35.93-46.653-59.947-57.84-12.139-5.654-23.765-10.689-53.537-6.976-29.769 3.713-76.959 18.317-148.327 58.287l-0.018 0.009c-118.12 66.248-195.528 120.152-299.957 224.289-105.064 104.77-152.584 167.674-224.931 299.105-70.208 127.544-58.311 187.177-51.636 201.44 11.148 23.823 24.169 37.238 58.081 59.778 16.79 11.025 34.55 20.497 53.064 28.286l-0.152-0.063c3.435 1.427 3.895 1.672 6.168 2.678z" />
<glyph unicode="&#xe90f;" glyph-name="call2" d="M1021.587 187.104c-11.932 12.709-54.058 50.287-131.5 100.002-78.013 50.15-135.545 81.419-152.049 88.71-1.045 0.475-2.265 0.752-3.55 0.752-2.050 0-3.936-0.705-5.429-1.886l0.018 0.014c-26.583-20.732-71.338-58.813-73.739-60.87-15.497-13.28-15.497-13.28-28.183-9.143-22.309 7.314-91.613 44.115-152.003 104.642s-99.088 131.545-106.402 153.831c-4.183 12.709-4.183 12.709 9.143 28.206 2.057 2.4 40.161 47.155 60.893 73.716 1.167 1.474 1.872 3.36 1.872 5.41 0 1.285-0.277 2.505-0.774 3.605l0.023-0.055c-7.292 16.526-38.561 74.036-88.71 152.049-49.784 77.419-87.316 119.545-100.025 131.477-1.593 1.505-3.747 2.431-6.118 2.431-0.992 0-1.945-0.162-2.837-0.461l0.063 0.018c-49.354-17.132-91.619-36.776-131.498-60.058l3.496 1.886c-42.1-24.668-78.454-50.611-112.292-79.421l1.090 0.905c-1.893-1.616-3.083-4.004-3.083-6.67 0-0.666 0.074-1.314 0.215-1.937l-0.011 0.058c4.777-22.263 27.612-115.202 98.47-243.936 72.299-131.385 122.402-198.701 228.576-304.509s175.615-158.929 307.137-231.227c128.734-70.858 221.718-93.716 243.936-98.448 0.562-0.128 1.209-0.201 1.873-0.201 2.674 0 5.071 1.19 6.689 3.070l0.010 0.011c27.899 32.746 53.835 69.101 76.527 107.596l1.966 3.606c21.391 36.381 41.035 78.645 56.589 122.837l1.584 5.166c0.274 0.818 0.432 1.761 0.432 2.741 0 2.353-0.912 4.494-2.402 6.087l0.005-0.005z" />
<glyph unicode="&#xe910;" glyph-name="call3" d="M617.795 1012.239v-70.53c213.882 0 387.914-174.032 387.914-387.914h70.53c0 252.779-205.665 458.444-458.444 458.444zM252.816 906.237c-18.51 0-37.003-6.039-52.071-18.183l-1.721-1.378-110.892-114.404 2.342 2.204c-36.698-31.605-46.812-81.53-31.064-123.497 29.716-85.692 105.472-251.397 254.912-400.656 149.761-149.944 317.207-222.45 400.036-254.775l1.653-0.551c42.826-14.355 89.089-4.117 122.257 24.245l1.034 0.896 110.203 110.203c29.252 29.252 29.252 80.537 0 109.79l-144.503 144.641c-29.336 29.336-80.591 29.336-109.927 0l-69.979-69.979c-25.052 11.957-86.69 42.977-145.261 98.839-57.81 55.129-87.323 118.85-98.012 143.47l70.53 70.53c30.948 30.948 32.709 84.083-2.962 112.475l3.238-2.961-146.087 149.531-1.653 1.378c-15.068 12.143-33.561 18.183-52.071 18.183zM617.795 871.179v-70.53c136.087 0 246.854-110.732 246.854-246.854h70.53c0 174.984-142.364 317.384-317.384 317.384zM252.886 835.914c2.513 0.004 4.992-0.942 7.439-2.823l143.401-146.845 1.721-1.378c-0.406 0.323 1.355-3.054-2.962-7.37l-104.279-104.279 8.059-21.282c0 0 39.802-108.216 124.873-189.343 83.656-79.785 186.794-123.359 186.794-123.359l21.972-9.367 105.038 105.038c5.929 5.929 4.265 5.929 10.194 0l144.503-144.641c6.013-6.013 6.013-4.043 0-10.056l-107.448-107.448c-16.361-13.906-33.264-17.552-53.586-10.814-79.774 31.195-235.799 99.46-374.414 238.245-139.576 139.407-211.902 297.806-238.451 374.552l-0.138 0.413-0.207 0.483c-5.339 14.121-1.437 34.603 11.089 45.39l1.17 1.034 107.723 111.029c2.448 1.864 4.994 2.82 7.508 2.823zM617.795 730.119v-70.53c58.328 0 105.795-47.467 105.795-105.795h70.53c0 97.225-79.099 176.325-176.325 176.325z" />
<glyph unicode="&#xe911;" glyph-name="call4" d="M809.283 325.668c-20.964 21.828-46.25 33.499-73.049 33.499-26.583 0-52.085-11.454-73.914-33.283l-68.295-68.078c-5.619 3.026-11.238 5.835-16.641 8.645-7.78 3.89-15.129 7.564-21.396 11.454-63.972 40.631-122.109 93.581-177.869 162.092-27.015 34.147-45.17 62.892-58.353 92.068 17.722 16.209 34.147 33.067 50.14 49.276 6.051 6.051 12.103 12.319 18.154 18.37 45.386 45.386 45.386 104.171 0 149.557l-59.001 59.001c-6.7 6.7-13.616 13.616-20.099 20.532-12.967 13.4-26.583 27.231-40.631 40.199-20.964 20.748-46.034 31.77-72.401 31.77s-51.869-11.022-73.482-31.77c-0.216-0.216-0.216-0.216-0.432-0.432l-73.482-74.13c-27.664-27.664-43.441-61.379-46.899-100.497-5.187-63.108 13.4-121.893 27.664-160.363 35.012-94.445 87.313-181.975 165.333-275.772 94.662-113.032 208.558-202.29 338.664-265.182 49.708-23.557 116.058-51.437 190.188-56.192 4.539-0.216 9.293-0.432 13.616-0.432 49.924 0 91.852 17.938 124.703 53.598 0.216 0.432 0.648 0.648 0.864 1.081 11.238 13.616 24.206 25.935 37.821 39.118 9.293 8.861 18.803 18.154 28.096 27.88 21.396 22.261 32.634 48.195 32.634 74.778 0 26.799-11.454 52.518-33.283 74.13l-118.651 119.083zM886.654 98.092c-0.216 0-0.216-0.216 0 0-8.429-9.077-17.074-17.29-26.367-26.367-14.048-13.4-28.312-27.448-41.712-43.224-21.828-23.341-47.547-34.363-81.262-34.363-3.242 0-6.7 0-9.942 0.216-64.188 4.106-123.838 29.176-168.575 50.573-122.325 59.217-229.738 143.289-318.996 249.837-73.698 88.826-122.974 170.953-155.608 259.131-20.099 53.814-27.448 95.742-24.206 135.293 2.161 25.286 11.887 46.25 29.825 64.188l73.698 73.698c10.59 9.942 21.828 15.345 32.851 15.345 13.616 0 24.638-8.213 31.554-15.129 0.216-0.216 0.432-0.432 0.648-0.648 13.183-12.319 25.719-25.070 38.902-38.686 6.7-6.916 13.616-13.832 20.532-20.964l59.001-59.001c22.909-22.909 22.909-44.089 0-66.998-6.268-6.268-12.319-12.535-18.587-18.587-18.154-18.587-35.444-35.876-54.247-52.734-0.432-0.432-0.864-0.648-1.081-1.081-18.587-18.587-15.129-36.741-11.238-49.060 0.216-0.648 0.432-1.297 0.648-1.945 15.345-37.173 36.957-72.185 69.807-113.896l0.216-0.216c59.65-73.482 122.541-130.754 191.917-174.627 8.861-5.619 17.938-10.158 26.583-14.48 7.78-3.89 15.129-7.564 21.396-11.454 0.864-0.432 1.729-1.081 2.593-1.513 7.348-3.674 14.264-5.403 21.396-5.403 17.938 0 29.176 11.238 32.851 14.912l73.914 73.914c7.348 7.348 19.019 16.209 32.634 16.209 13.4 0 24.422-8.429 31.122-15.777 0.216-0.216 0.216-0.216 0.432-0.432l119.083-119.083c22.261-22.044 22.261-44.737 0.216-67.646zM553.394 716.417c56.624-9.509 108.061-36.309 149.124-77.372s67.646-92.5 77.372-149.124c2.377-14.264 14.696-24.206 28.744-24.206 1.729 0 3.242 0.216 4.971 0.432 15.993 2.593 26.583 17.722 23.99 33.715-11.671 68.511-44.089 130.97-93.581 180.462s-111.951 81.91-180.462 93.581c-15.993 2.593-30.905-7.997-33.715-23.773s7.564-31.122 23.557-33.715zM1022.811 508.292c-19.235 112.816-72.401 215.474-154.095 297.168s-184.352 134.86-297.168 154.095c-15.777 2.81-30.689-7.997-33.499-23.773-2.593-15.993 7.997-30.905 23.99-33.715 100.713-17.074 192.565-64.837 265.614-137.67 73.049-73.049 120.596-164.901 137.67-265.614 2.377-14.264 14.696-24.206 28.744-24.206 1.729 0 3.242 0.216 4.971 0.432 15.777 2.377 26.583 17.506 23.773 33.283z" />
<glyph unicode="&#xe912;" glyph-name="cancel" d="M512 960c-283.136 0-512-228.864-512-512s228.864-512 512-512 512 228.864 512 512-228.864 512-512 512zM512 38.401c-225.792 0-409.599 183.807-409.599 409.599s183.807 409.599 409.599 409.599 409.599-183.807 409.599-409.599-183.807-409.599-409.599-409.599zM695.807 703.999l-183.807-183.807-183.807 183.807-72.192-72.192 183.807-183.807-183.807-183.807 72.192-72.192 183.807 183.807 183.807-183.807 72.192 72.192-183.807 183.807 183.807 183.807z" />
<glyph unicode="&#xe913;" glyph-name="card1" d="M164.571 850.286c-90.539 0-164.571-74.032-164.571-164.571v-475.429c0-90.539 74.032-164.571 164.571-164.571h694.857c90.539 0 164.571 74.032 164.571 164.571v475.429c0 90.539-74.032 164.571-164.571 164.571zM164.571 777.143h694.857c51.285 0 91.429-40.144 91.429-91.429v-475.429c0-51.285-40.144-91.429-91.429-91.429h-694.857c-51.285 0-91.429 40.144-91.429 91.429v475.429c0 51.285 40.144 91.429 91.429 91.429zM36.571 662.857v-137.143h950.857v137.143zM219.429 416c-37.87-0.003-68.568-30.702-68.571-68.571v0-45.714c0.003-37.87 30.702-68.568 68.571-68.571h109.714c37.87 0.003 68.568 30.702 68.571 68.571v0 45.714c-0.003 37.87-30.702 68.568-68.571 68.571v0z" />
<glyph unicode="&#xe914;" glyph-name="card2" d="M109.714 813.714c-60.143 0-109.714-49.571-109.714-109.714v-512c0-60.143 49.571-109.714 109.714-109.714h804.571c60.143 0 109.714 49.571 109.714 109.714v512c0 60.143-49.571 109.714-109.714 109.714zM109.714 740.571h804.571c20.714 0 36.571-15.857 36.571-36.571v-73.143h-841.143v-73.143h841.143v-365.714c0-20.714-15.857-36.571-36.571-36.571h-804.571c-20.714 0-36.571 15.857-36.571 36.571v512c0 20.714 15.857 36.571 36.571 36.571z" />
<glyph unicode="&#xe915;" glyph-name="chat" d="M102.4 857.6h819.201v-614.4h-759.297l-59.904-59.904v674.304zM102.4 960.001c-56.32 0-101.888-46.080-101.888-102.4l-0.512-921.6 204.8 204.8h716.8c56.32 0 102.4 46.080 102.4 102.4v614.4c0 56.32-46.080 102.4-102.4 102.4h-819.201zM204.8 448h409.6v-102.4h-409.6v102.4zM204.8 601.6h614.4v-102.4h-614.4v102.4zM204.8 755.2h614.4v-102.4h-614.4v102.4z" />
<glyph unicode="&#xe916;" glyph-name="chatbox" d="M164.469 923.429c-90.301-0.257-164.211-74.169-164.469-164.469 0-0.015 0-0.033 0-0.051s0-0.037 0-0.054v0.002-438.857c0-0.015 0-0.033 0-0.051s0-0.037 0-0.054v0.002c0.257-90.301 74.169-164.211 164.469-164.469 0.015 0 0.033 0 0.051 0s0.037 0 0.054 0h54.855v-146.286c0.005-20.197 16.378-36.568 36.575-36.568 8.935 0 17.121 3.203 23.473 8.525l-0.057-0.047 209.143 174.375h370.866c0.015 0 0.033 0 0.051 0s0.037 0 0.054 0h-0.002c90.301 0.257 164.211 74.169 164.469 164.469 0 0.015 0 0.033 0 0.051s0 0.037 0 0.054v-0.002 438.857c0 0.015 0 0.033 0 0.051s0 0.037 0 0.054v-0.002c-0.257 90.301-74.169 164.211-164.469 164.469-0.015 0-0.033 0-0.051 0s-0.037 0-0.054 0h-694.855c-0.015 0-0.033 0-0.051 0s-0.037 0-0.054 0h0.002zM164.674 850.286h694.651c50.918-0.145 91.386-40.614 91.531-91.531v-438.651c-0.145-50.918-40.614-91.386-91.531-91.531h-377.384c-12.835 0-25.287-4.511-35.143-12.733l-154.227-128.59v104.75c-0.002 20.197-16.375 36.569-36.571 36.571h-91.326c-50.918 0.145-91.386 40.614-91.531 91.531v438.651c0.145 50.918 40.614 91.386 91.531 91.531z" />
<glyph unicode="&#xe917;" glyph-name="chatbubble" d="M511.611 959.997c-282.355 0-512.431-224.575-511.609-501.39 0.006-96.523 28.334-190.934 81.468-271.516l0.576-0.871 0.625-0.843c1.238-1.661 2.376-3.391 3.451-5.161 3.853-6.942 2.341-17.387 5.419-6.054l-44.639-161.486c-1.449-4.926-2.371-9.992-2.754-15.112l-0.080-1.094-0.018-1.103c-0.469-32.129 26.198-59.268 58.33-59.365l1.965-0.005 1.946 0.201c7.358 0.769 14.56 2.653 21.353 5.581l-2.063-0.817 156.883 56.679c4.187 1.773 8.689 2.678 13.236 2.661h0.098c4.218-0.005 8.398-0.785 12.335-2.299l-0.049 0.023c9.038-3.49 39.991-15.033 72.777-24.21 34.528-9.664 90.975-20.487 138.932-20.487 282.682 0 504.203 228.633 504.203 504.979v0.014c-0.011 34.555-3.67 69.014-10.911 102.803-48.394 228.038-255.164 398.872-501.475 398.872zM511.611 886.855c212.549 0 388.801-147.035 429.935-340.958l0.009-0.040 0.009-0.035c6.166-28.767 9.28-58.106 9.29-87.526-0.007-237.52-187.578-431.824-431.060-431.824-35.7 0-92.169 10.206-119.218 17.777-28.791 8.058-59.317 19.374-66.142 22.009l-0.054 0.018c-12.271 4.717-25.305 7.144-38.451 7.166-14.42 0.048-28.703-2.824-41.981-8.447l1.843 0.723-131.459-47.447 37.795 136.714c8.543 31.444-5.064 48.575-12.571 61.705l-0.169 0.299-0.178 0.299c-2.424 4.059-5.051 7.99-7.875 11.782l1.201-1.71c-45.267 68.649-69.392 149.063-69.389 231.292v0.112c-0.737 236.291 194.677 428.091 438.466 428.091z" />
<glyph unicode="&#xe918;" glyph-name="check" d="M384 270.080l-177.92 177.92-60.587-60.16 238.507-238.507 512 512-60.16 60.16-451.84-451.413z" />
<glyph unicode="&#xe919;" glyph-name="check_circle" d="M512 960c-282.624 0-512-229.376-512-512s229.376-512 512-512 512 229.376 512 512-229.376 512-512 512zM512 38.401c-225.792 0-409.599 183.807-409.599 409.599s183.807 409.599 409.599 409.599 409.599-183.807 409.599-409.599-183.807-409.599-409.599-409.599zM747.008 674.304l-337.407-337.407-132.608 132.096-72.192-72.192 204.8-204.8 409.599 409.599z" />
<glyph unicode="&#xe91a;" glyph-name="close_circle" d="M512 960c-282.314 0-512-229.686-512-512s229.686-512 512-512 512 229.686 512 512-229.686 512-512 512zM697.378 318.302c7.557-7.19 12.257-17.323 12.257-28.553 0-21.751-17.633-39.385-39.385-39.385-11.231 0-21.362 4.7-28.538 12.241l-129.714 129.69-129.698-129.674c-7.049-6.706-16.606-10.832-27.127-10.832-21.751 0-39.385 17.633-39.385 39.385 0 10.521 4.126 20.079 10.847 27.143l129.658 129.682-129.674 129.698c-6.706 7.049-10.832 16.606-10.832 27.127 0 21.751 17.633 39.385 39.385 39.385 10.521 0 20.079-4.126 27.143-10.847l129.682-129.658 129.698 129.674c7.049 6.706 16.606 10.832 27.127 10.832 21.751 0 39.385-17.633 39.385-39.385 0-10.521-4.126-20.079-10.847-27.143l-129.658-129.682z" />
<glyph unicode="&#xe91b;" glyph-name="close_circle_outline" d="M512 960c-282.225 0-512-229.775-512-512s229.775-512 512-512c282.225 0 512 229.775 512 512s-229.775 512-512 512zM512 881.231c239.621 0 433.231-193.61 433.231-433.231s-193.61-433.231-433.231-433.231c-239.621 0-433.231 193.61-433.231 433.231s193.61 433.231 433.231 433.231zM354.048 645.322c-21.748-0.009-39.374-17.641-39.374-39.388 0-11.074 4.57-21.081 11.927-28.238l129.696-129.696-129.687-129.687c-7.266-7.15-11.769-17.090-11.769-28.082 0-21.754 17.634-39.388 39.388-39.388 10.992 0 20.932 4.502 28.078 11.764l129.692 129.692 129.687-129.687c7.15-7.266 17.090-11.769 28.082-11.769 21.754 0 39.388 17.634 39.388 39.388 0 10.992-4.502 20.932-11.764 28.078l-129.692 129.692 129.687 129.687c7.266 7.15 11.769 17.090 11.769 28.082 0 21.754-17.634 39.388-39.388 39.388-10.992 0-20.932-4.502-28.078-11.764l-129.692-129.692-129.687 129.687c-7.164 7.364-17.17 11.932-28.242 11.932-0.007 0-0.016 0-0.023 0h0.001z" />
<glyph unicode="&#xe91c;" glyph-name="comment" d="M1024-64h-511.232c-282.661 0.141-511.758 229.317-511.758 512 0 282.773 229.227 512 512 512 271.456 0 493.563-211.244 510.908-478.31l0.082-1.512v-2.688zM512.768 874.663c-235.64 0-426.663-191.022-426.663-426.663s191.022-426.663 426.663-426.663v0h425.895v454.784c-15.575 223.112-200.23 398.24-425.87 398.553h-0.032zM298.663 661.337h256v-85.337h-256v85.337zM298.663 490.663h426.663v-85.337h-426.663v85.337zM298.663 320h426.663v-85.337h-426.663v85.337z" />
<glyph unicode="&#xe91d;" glyph-name="computer" d="M853.333 192c46.933 0 84.907 38.4 84.907 85.333l0.427 426.667c0 46.933-38.4 85.333-85.333 85.333h-682.667c-46.933 0-85.333-38.4-85.333-85.333v-426.667c0-46.933 38.4-85.333 85.333-85.333h-170.667v-85.333h1024v85.333h-170.667zM170.667 704h682.667v-426.667h-682.667v426.667z" />
<glyph unicode="&#xe91e;" glyph-name="contact_support" d="M466.67-77.373v163.187c-227.102 11.785-407.968 200.358-407.968 430.18 0 237.528 193.105 430.633 430.633 430.633s430.633-193.105 430.633-430.633c0-224.382-155.934-450.125-388.476-562.090l-64.821-31.278zM489.335 855.968c-187.665 0-339.973-152.308-339.973-339.973s152.308-339.973 339.973-339.973h67.995v-104.258c165.001 104.258 271.979 275.605 271.979 444.232 0 187.665-152.308 339.973-339.973 339.973zM444.005 334.675h90.659v-90.659h-90.659zM534.665 402.67h-90.659c0 147.322 135.989 135.989 135.989 226.649 0 49.862-40.797 90.659-90.659 90.659s-90.659-40.797-90.659-90.659h-90.659c0 100.178 81.14 181.32 181.32 181.32s181.32-81.14 181.32-181.32c0-113.325-135.989-124.657-135.989-226.649z" />
<glyph unicode="&#xe91f;" glyph-name="credit_card" d="M992 320.008c-17.664 0-32-14.336-32-32v-224h-896v384h352c17.664 0 32 14.336 32 32s-14.336 32-32 32h-352v128h352c17.664 0 32 14.336 32 32s-14.336 32-32 32h-352c-35.328 0-64-28.672-64-64v-576c0-35.328 28.672-64 64-64h896c35.328 0 64 28.672 64 64v224c0 17.664-14.336 32-32 32zM288 320.008h-128c-17.664 0-32-14.336-32-32s14.336-32 32-32h128c17.664 0 32 14.336 32 32s-14.336 32-32 32zM1004.608 797.448l-224 96c-8.128 3.392-17.152 3.392-25.28 0l-224-96c-11.712-5.056-19.328-16.64-19.328-29.44v-128c0-176.064 65.088-278.976 240.064-379.776 4.928-2.816 10.432-4.224 15.936-4.224s11.008 1.408 15.936 4.224c174.976 100.544 240.064 203.456 240.064 379.776v128c0 12.8-7.616 24.384-19.392 29.44zM960 640.008c0-147.776-48.896-229.12-192-314.88-143.104 85.952-192 167.296-192 314.88v106.88l192 82.304 192-82.304v-106.88zM884.032 697.032c-13.76 10.88-33.856 8.768-44.992-4.992l-100.608-125.824-39.808 59.52c-9.92 14.72-29.824 18.624-44.352 8.896-14.656-9.792-18.688-29.696-8.896-44.352l64-96c5.696-8.512 15.040-13.76 25.28-14.272 0.448 0 0.96 0 1.344 0 9.664 0 18.88 4.352 25.024 12.032l128 160c11.008 13.824 8.832 33.92-4.992 44.992z" />
<glyph unicode="&#xe920;" glyph-name="cross" d="M1024 869.921l-90.079 90.079-421.921-421.966-421.921 421.966-90.079-90.079 421.966-421.921-421.966-421.921 90.079-90.079 421.921 421.966 421.921-421.966 90.079 90.079-421.966 421.921 421.966 421.921z" />
<glyph unicode="&#xe921;" glyph-name="density_medium" d="M128 832h768v-85.333h-768v85.333zM128 149.333h768v-85.333h-768v85.333zM128 490.667h768v-85.333h-768v85.333z" />
<glyph unicode="&#xe922;" glyph-name="desktop_windows" d="M930.909 913.455h-837.818c-51.2 0-93.091-41.891-93.091-93.091v-558.545c0-51.2 41.891-93.091 93.091-93.091h325.818v-93.091h-93.091v-93.091h372.363v93.091h-93.091v93.091h325.818c51.2 0 93.091 41.891 93.091 93.091v558.545c0 51.2-41.891 93.091-93.091 93.091zM930.909 261.818h-837.818v558.545h837.818v-558.545z" />
<glyph unicode="&#xe923;" glyph-name="diamond" d="M219.092 925.914c-23.78-0.027-45.97-12.433-58.447-32.678l-150.306-242.62c0.082 0.155 0.077 0.145 0.071 0.135l-0.087-0.165c-15.105-24.433-13.51-55.968 3.988-78.749 0.060-0.075 0.073-0.090 0.084-0.105l-0.047 0.059 443.193-574.839c26.95-35.133 81.969-35.133 108.919 0l443.193 574.839c-0.034-0.044-0.022-0.029-0.010-0.014l0.047 0.060c17.498 22.782 19.093 54.316 3.988 78.749-0.093 0.169-0.098 0.177-0.103 0.187l0.086-0.158-150.306 242.62c-12.477 20.244-34.667 32.652-58.447 32.678-0.005 0-0.012 0-0.019 0s-0.013 0-0.020 0h-585.74c-0.005 0-0.012 0-0.019 0s-0.013 0-0.020 0h0.001zM219.167 857.64h585.666c0.21 0 0.29-0.046 0.4-0.225 0.097-0.163 0.111-0.185 0.124-0.206l-0.082 0.14 126.708-204.529h-839.966l126.708 204.529c-0.069-0.118-0.055-0.096-0.042-0.075l0.083 0.141c0.11 0.179 0.19 0.225 0.4 0.225zM90.721 584.547h842.557l-420.942-545.975c0.046 0.063 0.029 0.042 0.013 0.020l-0.063-0.086c-0.669-0.872 0.093-0.872-0.575 0-0.079 0.109-0.095 0.13-0.112 0.151l0.062-0.085zM513.259 926.289c-0.449 0-0.894-0.010-1.337-0.027l0.065 0.002c-0.077 0.001-0.167 0.001-0.258 0.001-13.034 0-24.361-7.303-30.114-18.041l-0.090-0.182-166.229-221.639-79.149 184.685c-5.277 12.455-17.399 21.032-31.524 21.032-18.855 0-34.14-15.285-34.14-34.14 0-4.99 1.070-9.73 2.994-14.002l-0.086 0.215 101.981-237.956 203.137-575.548c3.338-14.991 16.194-26.149 31.775-26.862l0.075-0.003c-0.018-0.001 0.092-0.010 0.201-0.018l0.115-0.007c0.191-0.004 0.416-0.006 0.641-0.006 0.351 0 0.7 0.005 1.048 0.016l-0.051-0.001c16.278 0.078 29.857 11.536 33.196 26.823l0.042 0.226 203.078 575.381 101.981 237.956c1.837 4.057 2.908 8.797 2.908 13.787 0 18.855-15.285 34.14-34.14 34.14-14.125 0-26.247-8.578-31.44-20.81l-0.084-0.224-79.149-184.685-166.254 221.672c-5.684 10.629-16.554 17.827-29.139 18.213l-0.052 0.001zM512 834.88l166.55-222.063-166.55-471.888-166.55 471.888z" />
<glyph unicode="&#xe924;" glyph-name="discord" d="M866.872 773.56c-65.286 29.954-135.256 52.017-208.435 64.645-1.325 0.259-2.648-0.382-3.373-1.584-9-16.001-18.991-36.904-25.94-53.296-78.721 11.78-157.018 11.78-234.128 0-6.951 16.766-17.325 37.295-26.322 53.296-0.723 1.195-2.048 1.789-3.373 1.584-73.137-12.588-143.107-34.65-208.435-64.645-0.56-0.218-1.065-0.642-1.365-1.147-132.744-198.326-169.142-391.787-151.3-582.856 0.082-0.942 0.6-1.83 1.325-2.389 87.596-64.344 172.423-103.39 255.712-129.248 1.325-0.424 2.731 0.082 3.585 1.195 19.714 26.882 37.246 55.252 52.316 85.082 0.901 1.747 0.042 3.837-1.789 4.52-27.864 10.58-54.364 23.469-79.881 38.064-2.006 1.195-2.171 4.054-0.341 5.461 5.379 4.014 10.757 8.192 15.878 12.416 0.942 0.765 2.22 0.942 3.331 0.424 167.6-76.508 349.028-76.508 514.631 0 1.106 0.512 2.389 0.382 3.373-0.424 5.12-4.219 10.499-8.451 15.919-12.464 1.878-1.365 1.747-4.268-0.301-5.461-25.517-14.895-52.017-27.523-79.922-38.022-1.83-0.683-2.608-2.813-1.747-4.561 15.359-29.781 32.944-58.16 52.271-85.042 0.806-1.147 2.266-1.624 3.585-1.242 83.676 25.899 168.541 64.945 256.095 129.248 0.765 0.56 1.242 1.406 1.325 2.349 21.338 220.898-35.757 412.776-151.393 582.856-0.218 0.6-0.723 1.024-1.283 1.242zM342.176 305.871c-50.474 0-92.032 46.337-92.032 103.214s40.753 103.214 92.032 103.214c51.674 0 92.851-46.719 92.032-103.214 0-56.917-40.793-103.214-92.032-103.214zM682.465 305.871c-50.433 0-92.032 46.337-92.032 103.214s40.753 103.214 92.032 103.214c51.674 0 92.851-46.719 92.032-103.214 0-56.917-40.368-103.214-92.032-103.214z" />
<glyph unicode="&#xe925;" glyph-name="disk" d="M810.663 960h-682.663c-70.688 0-128-57.312-128-128v0-896h1024v810.663zM298.663 874.663h426.663v-170.663h-426.663zM938.663 21.337h-853.337v810.663c0 23.566 19.104 42.663 42.663 42.663v0h85.337v-256h597.337v220.672l128-128zM512 533.337c-94.254 0-170.663-76.409-170.663-170.663s76.409-170.663 170.663-170.663c94.254 0 170.663 76.409 170.663 170.663v0c0 94.254-76.409 170.663-170.663 170.663v0zM512 277.337c-47.132 0-85.337 38.204-85.337 85.337s38.204 85.337 85.337 85.337c47.132 0 85.337-38.204 85.337-85.337v0c0-47.132-38.204-85.337-85.337-85.337v0z" />
<glyph unicode="&#xe926;" glyph-name="dribbble" d="M512 960c-282.663 0-512-229.337-512-512s229.337-512 512-512c282.112 0 512 229.337 512 512s-229.888 512-512 512zM850.176 724.007c61.095-74.407 97.753-169.383 98.855-272.128-14.425 2.777-158.809 32.217-304.345 13.913-3.328 7.207-6.105 14.976-9.433 22.745-8.871 21.12-18.905 42.752-28.889 63.321 161.063 65.536 234.368 159.911 243.801 172.16zM572.505 616.832c-71.641 131.584-151.040 239.36-163.239 256 32.768 7.769 67.2 11.648 102.745 11.648 111.065 0 212.697-41.639 289.881-109.952-7.769-11.097-73.856-99.417-229.376-157.696zM325.977 843.392c11.648-15.527 89.383-123.815 162.137-252.672-204.377-54.4-384.857-53.337-404.263-53.337 28.327 135.513 119.975 248.231 242.137 306.009zM74.407 460.8c18.855-0.551 231.001-3.328 449.241 62.169 12.8-24.409 24.448-49.408 35.545-74.407-5.543-1.664-11.648-3.328-17.241-4.992-225.447-72.743-345.383-271.577-355.417-288.217-69.415 77.184-112.167 179.929-112.167 292.096v13.351zM586.969 375.808c1.113 0.551 1.664 0.551 2.777 1.113 61.657-159.36 86.656-293.209 93.312-331.52-52.775-22.784-110.503-34.983-171.047-34.983-101.081 0-194.343 34.432-268.199 92.16 7.769 16.128 96.601 187.175 343.168 273.241zM755.801 85.376c-4.441 26.663-27.776 154.368-84.953 311.552 137.177 21.632 257.113-13.913 272.089-18.905-18.905-121.6-88.832-226.56-187.136-292.647z" />
<glyph unicode="&#xe927;" glyph-name="exchange" d="M1013.624 738.538l-398.812 218.992c-5.992 3.289-13.258 3.289-19.25 0l-150.32-82.539c-3.172-0.836-6.133-2.43-8.586-4.719l-239.899-131.734c-6.398-3.508-10.375-10.227-10.375-17.531v-264.858c-40.469-12.656-77.555-34.977-108.391-65.82-80.375-80.367-100.867-202.945-50.992-305.015 4.844-9.922 16.82-14.039 26.742-9.188 9.93 4.852 14.039 16.828 9.195 26.75-42.375 86.727-24.961 190.875 43.336 259.171 42.711 42.711 99.492 66.234 159.891 66.234s117.18-23.523 159.891-66.234c42.703-42.703 66.227-99.484 66.227-159.883s-23.523-117.18-66.234-159.891c-68.297-68.297-172.445-85.711-259.171-43.336-9.922 4.852-21.898 0.734-26.742-9.188-4.852-9.93-0.742-21.906 9.188-26.75 37.18-18.172 77.070-27 116.672-27 69.086 0.008 137.25 26.898 188.344 77.992 23.43 23.43 41.945 50.461 55.047 79.844l86.18-47.32c3-1.648 6.313-2.469 9.625-2.469s6.633 0.82 9.625 2.469l398.812 218.984c6.398 3.516 10.375 10.234 10.375 17.531v138.992c0 11.047-8.953 20-20 20s-20-8.953-20-20v-127.156l-358.749-196.992v392.343l118.398 65.016v-103.063c0-7.078 3.734-13.625 9.82-17.219 3.141-1.852 6.656-2.781 10.18-2.781 3.313 0 6.633 0.82 9.641 2.477l85.461 47.039c6.391 3.516 10.352 10.227 10.352 17.516v124.922l114.898 63.086v-105.195c0-11.047 8.953-20 20-20s20 8.953 20 20v138.992c0 7.297-3.977 14.023-10.375 17.531zM605.188 917.187l357.257-196.18-112.695-61.883-357.257 196.18zM605.188 524.836l-357.257 196.172 116.828 64.156 357.265-196.172zM763.57 611.805l-357.257 196.172 44.625 24.508 357.265-196.172zM454.336 390.328c-50.266 50.266-117.094 77.945-188.172 77.945-13.445 0-26.727-0.992-39.781-2.938v221.875l358.874-197.063v-392.343l-62.289 34.203c6.133 22.578 9.305 46.125 9.305 70.156 0 71.078-27.68 137.906-77.938 188.164zM829.109 511.023l-45.461-25.023v91.195l45.461 24.961zM1003.999 522.117c-5.258 0-10.422-2.141-14.141-5.859s-5.859-8.875-5.859-14.141c0-5.258 2.141-10.414 5.859-14.133 3.719-3.727 8.883-5.859 14.141-5.859s10.422 2.133 14.141 5.859c3.719 3.719 5.859 8.875 5.859 14.133 0 5.266-2.141 10.422-5.859 14.141s-8.883 5.859-14.141 5.859zM198.915 182.165c5.117 0 10.242 1.953 14.141 5.852 7.813 7.813 7.813 20.477 0 28.289l-13.852 13.859h118.203c28.672 0 52-23.328 52-52s-23.328-52-52-52h-70.039c-11.047 0-20-8.953-20-20 0-11.039 8.953-19.992 20-19.992h70.039c50.727 0 92 41.266 92 91.992s-41.273 91.992-92 91.992h-118.203l13.852 13.859c7.813 7.813 7.813 20.477 0 28.289-7.805 7.805-20.469 7.805-28.281 0l-48-48c-7.805-7.813-7.805-20.477 0-28.289l48-47.992c3.906-3.906 9.023-5.859 14.141-5.859zM92.149 8.102c-5.688 0-11.336 2.422-15.281 7.117l-0.039 0.047c-7.109 8.453-6.016 21.063 2.438 28.172 8.453 7.117 21.070 6.023 28.18-2.43 7.102-8.461 6.031-21.094-2.422-28.203-3.758-3.156-8.328-4.703-12.875-4.703z" />
<glyph unicode="&#xe928;" glyph-name="expand" d="M896-64h-213.337v85.337h213.337c23.566 0 42.663 19.104 42.663 42.663v0 213.337h85.337v-213.337c0-70.688-57.312-128-128-128v0zM85.337 618.663h-85.337v213.337c0 70.688 57.312 128 128 128v0h213.337v-85.337h-213.337c-23.566 0-42.663-19.104-42.663-42.663v0zM341.337-64h-213.337c-70.688 0-128 57.312-128 128v0 213.337h85.337v-213.337c0-23.566 19.104-42.663 42.663-42.663v0h213.337zM1024 618.663h-85.337v213.337c0 23.566-19.104 42.663-42.663 42.663v0h-213.337v85.337h213.337c70.688 0 128-57.312 128-128v0z" />
<glyph unicode="&#xe929;" glyph-name="expand_arrows" d="M883.973 759.466l140.034-140.802v298.666c0 23.567-19.104 42.663-42.663 42.663v0h-296.618l139.138-139.944-312.452-312.324-311.466 311.466 141.404 140.802h-298.666c-23.567 0-42.663-19.104-42.663-42.663v0-296.618l139.228 138.408 311.85-311.85-310.916-310.75-140.162 140.802v-298.666c0-23.567 19.104-42.663 42.663-42.663v0h296.618l-139.010 139.816 311.134 311.134 311.466-311.466-140.2-139.484h298.666c23.567 0 42.663 19.104 42.663 42.663v0 296.618l-140.546-139.688-311.722 311.466z" />
<glyph unicode="&#xe92a;" glyph-name="eye1" d="M511.275 789.346c-179.449 0-360.135-104.098-499.118-303.32 0.037 0.057 0.004 0.011-0.029-0.035l-0.071-0.106c-15.611-22.624-16.070-52.687-1.171-75.782 107.898-168.835 285.841-303.449 500.389-303.449 212.589 0 393.637 134.76 501.889 304.232 14.482 22.526 14.477 51.67-0.017 74.19-0.099 0.164-0.115 0.19-0.132 0.215l0.082-0.137c-108.485 167.554-290.362 304.19-501.822 304.19zM511.275 721.077c181.655 0 345.75-120.53 444.466-272.952 0.105-0.163 0.108-0.149 0-0.317 0.059 0.098 0.036 0.065 0.015 0.031l-0.081-0.134c-98.481-154.216-260.888-272.781-444.399-272.781-185.888 0-344.48 117.928-442.932 272.039-0.111 0.178-0.141 0.224-0.171 0.27l0.080-0.129c129.554 185.633 289.956 273.973 443.024 273.973zM512 652.807c-112.708 0-204.807-92.099-204.807-204.807s92.099-204.807 204.807-204.807c112.708 0 204.807 92.099 204.807 204.807s-92.099 204.807-204.807 204.807zM512 584.538c75.812 0 136.538-60.726 136.538-136.538s-60.726-136.538-136.538-136.538c-75.812 0-136.538 60.726-136.538 136.538s60.726 136.538 136.538 136.538z" />
<glyph unicode="&#xe92b;" glyph-name="eye2" d="M648.532 448c0-75.404-61.128-136.532-136.532-136.532v0c-75.404 0-136.532 61.128-136.532 136.532v0c0 75.404 61.128 136.532 136.532 136.532v0c75.404 0 136.532-61.128 136.532-136.532v0zM1012.988 485.12c-56.448 87.295-129.684 161.45-211.774 214.462-90.815 58.709-191.081 89.749-289.939 89.749-90.709 0-179.903-25.92-265.107-77.034-86.89-52.117-165.609-128.255-233.982-226.281-7.648-10.858-12.224-24.358-12.224-38.928 0-13.708 4.050-26.468 11.019-37.153l-0.16 0.261c56.341-88.17 128.852-162.431 209.662-214.718 90.986-58.944 188.905-88.81 290.793-88.81 99.647 0 200.127 30.784 290.558 89.002 82.047 52.842 155.135 127.274 211.369 215.294 6.749 10.446 10.759 23.21 10.759 36.911 0 13.84-4.093 26.723-11.134 37.507l0.161-0.263zM512 243.201c-113.107 0-204.799 91.691-204.799 204.799s91.691 204.799 204.799 204.799c113.107 0 204.799-91.691 204.799-204.799v0c-0.133-113.053-91.745-204.665-204.786-204.799h-0.013z" />
<glyph unicode="&#xe92c;" glyph-name="eye3" d="M512 755.187c-187.174 0-333.053-117.164-512-307.091 154.17-162.397 283.53-307.315 512-307.315s396.373 183.429 512 303.858c-118.348 141.077-286.283 310.516-512 310.516zM512 174.938c-202.828 0-325.242 125.775-464.942 273.126 166.206 173.313 298.352 272.966 464.942 272.966 197.226 0 351.332-142.229 466.031-275.015-112.778-117.612-265.476-271.11-466.031-271.11zM512 652.781c-112.938 0-204.813-91.874-204.813-204.781s91.874-204.781 204.813-204.781 204.813 91.874 204.813 204.781-91.874 204.781-204.813 204.781zM512 277.344c-94.083 0-170.656 76.541-170.656 170.656s76.573 170.656 170.656 170.656 170.656-76.541 170.656-170.656c0-94.083-76.573-170.656-170.656-170.656zM512 567.469c-65.881 0-119.469-53.588-119.469-119.469s53.588-119.469 119.469-119.469c65.881 0 119.469 53.588 119.469 119.469s-53.588 119.469-119.469 119.469zM512 362.656c-47.058 0-85.344 38.286-85.344 85.344s38.286 85.344 85.344 85.344 85.344-38.286 85.344-85.344c0-47.058-38.286-85.344-85.344-85.344z" />
<glyph unicode="&#xe92d;" glyph-name="eye4" d="M512 85.333c-352.405 0-512 278.208-512 362.667s159.595 362.667 512 362.667c352.405 0 512-278.208 512-362.667s-159.595-362.667-512-362.667zM512 768c-323.797 0-469.333-254.379-469.333-320s145.536-320 469.333-320c323.797 0 469.333 254.379 469.333 320s-145.536 320-469.333 320zM512 256c-105.877 0-192 86.123-192 192s86.123 192 192 192c105.877 0 192-86.123 192-192s-86.123-192-192-192zM512 597.333c-82.325 0-149.333-67.008-149.333-149.333s67.008-149.333 149.333-149.333c82.325 0 149.333 67.008 149.333 149.333s-67.008 149.333-149.333 149.333z" />
<glyph unicode="&#xe92e;" glyph-name="facebook" d="M1023.996 444.885c0-255.53-187.479-467.372-432.217-505.816v356.824h118.993l22.658 147.623h-141.65v95.784c0 40.407 19.799 79.739 83.199 79.739h64.385v125.695c0 0-58.452 9.983-114.302 9.983-116.648 0-192.849-70.704-192.849-198.655v-112.508h-129.668v-147.623h129.668v-356.824c-244.688 38.485-432.217 250.285-432.217 505.768 0 282.75 229.245 511.996 511.996 511.996s511.996-229.206 511.996-511.996z" />
<glyph unicode="&#xe92f;" glyph-name="filter" d="M34.587 720.808c-0.144 0.002-0.312 0.003-0.483 0.003-18.835 0-34.104-15.269-34.104-34.104s15.269-34.104 34.104-34.104c0.169 0 0.339 0.001 0.508 0.003h954.801c0.144-0.002 0.312-0.003 0.483-0.003 18.835 0 34.104 15.269 34.104 34.104s-15.269 34.104-34.104 34.104c-0.169 0-0.339-0.001-0.508-0.003h0.026zM205.092 482.101c-0.144 0.002-0.312 0.003-0.483 0.003-18.835 0-34.104-15.269-34.104-34.104s15.269-34.104 34.104-34.104c0.169 0 0.339 0.001 0.508 0.003h613.791c0.144-0.002 0.312-0.003 0.483-0.003 18.835 0 34.104 15.269 34.104 34.104s-15.269 34.104-34.104 34.104c-0.169 0-0.339-0.001-0.508-0.003h0.026zM409.697 243.394c-0.144 0.002-0.312 0.003-0.483 0.003-18.835 0-34.104-15.269-34.104-34.104s15.269-34.104 34.104-34.104c0.169 0 0.339 0.001 0.508 0.003h204.58c0.144-0.002 0.312-0.003 0.483-0.003 18.835 0 34.104 15.269 34.104 34.104s-15.269 34.104-34.104 34.104c-0.169 0-0.339-0.001-0.508-0.003h0.026z" />
<glyph unicode="&#xe930;" glyph-name="filter2" d="M640-64l-256 192v218.456l-341.336 384v101.544c0 70.687 57.311 128 128 128v0h682.664c70.689 0 128-57.313 128-128v0-101.544l-341.336-384zM469.336 170.664l85.336-64v272.216l341.336 384v69.12c0 23.566-19.105 42.664-42.664 42.664v0h-682.664c-23.566 0-42.664-19.105-42.664-42.664v0-69.12l341.336-384z" />
<glyph unicode="&#xe931;" glyph-name="filter3" d="M217.001 802h590l-295.59-371.7-294.41 371.7zM54.75 825.010c119.18-152.81 339.249-436.010 339.249-436.010v-354c0-32.45 26.55-59 59-59h117.999c32.45 0 59 26.55 59 59v354c0 0 219.48 283.2 338.66 436.010 30.090 38.94 2.36 94.989-46.61 94.989h-820.689c-48.969 0-76.7-56.049-46.61-94.989z" />
<glyph unicode="&#xe932;" glyph-name="fit_screen" d="M256 277.333h512v341.333h-512v-341.333zM341.333 533.333h341.333v-170.667h-341.333v170.667zM170.667 320h-85.333v-128c0-46.933 38.4-85.333 85.333-85.333h128v85.333h-128v128zM170.667 704h128v85.333h-128c-46.933 0-85.333-38.4-85.333-85.333v-128h85.333v128zM853.333 789.333h-128v-85.333h128v-128h85.333v128c0 46.933-38.4 85.333-85.333 85.333zM853.333 192h-128v-85.333h128c46.933 0 85.333 38.4 85.333 85.333v128h-85.333v-128z" />
<glyph unicode="&#xe933;" glyph-name="gift1" d="M375.704 959.523c-39.89-2.056-78.604-18.578-107.961-47.934-46.97-46.97-61.083-117.893-35.663-179.265s85.548-101.549 151.977-101.549h255.887c66.429 0 126.558 40.177 151.977 101.549s11.308 132.293-35.663 179.265c-46.971 46.97-117.893 61.083-179.265 35.663-26.091-10.807-48.022-28.142-64.994-49.313-16.971 21.171-38.902 38.506-64.994 49.313-23.015 9.533-47.37 13.505-71.303 12.271zM379.38 886.583c13.278 0.673 26.81-1.557 39.652-6.877 34.244-14.185 56.413-47.363 56.413-84.431v-91.388h-91.388c-37.068 0-70.248 22.167-84.431 56.413s-6.399 73.382 19.813 99.595c16.382 16.382 37.813 25.567 59.943 26.689zM644.62 886.583c22.13-1.122 43.56-10.306 59.943-26.689 26.212-26.212 33.996-65.349 19.813-99.595s-47.363-56.413-84.431-56.413h-91.388v91.388c0 37.068 22.167 70.248 56.413 84.431 12.841 5.319 26.375 7.55 39.652 6.877zM146.448 703.887c-60.122 0-109.666-49.544-109.666-109.666v-109.666c0-60.122 49.544-109.666 109.666-109.666h731.105c60.122 0 109.666 49.544 109.666 109.666v109.666c0 60.122-49.544 109.666-109.666 109.666zM146.448 630.776h731.105c20.884 0 36.555-15.671 36.555-36.555v-109.666c0-20.884-15.671-36.555-36.555-36.555h-731.105c-20.884 0-36.555 15.671-36.555 36.555v109.666c0 20.884 15.671 36.555 36.555 36.555zM511.452 704.404c-19.953-0.31-36.010-16.557-36.010-36.555 0-0.182 0.001-0.364 0.003-0.546v0.027-657.994h-219.331c-40.811 0-73.11 32.3-73.11 73.11v328.997c0.002 0.154 0.003 0.335 0.003 0.517 0 20.191-16.368 36.559-36.559 36.559s-36.559-16.368-36.559-36.559c0-0.182 0.001-0.363 0.003-0.545v0.027-328.997c0-80.322 65.899-146.221 146.221-146.221h249.92c1.781-0.307 3.831-0.483 5.924-0.483s4.143 0.176 6.139 0.513l-0.215-0.030h250.006c80.322 0 146.221 65.899 146.221 146.221v328.997c0.002 0.154 0.003 0.335 0.003 0.517 0 20.191-16.368 36.559-36.559 36.559s-36.559-16.368-36.559-36.559c0-0.182 0.001-0.363 0.003-0.545v0.027-328.997c0-40.811-32.3-73.11-73.11-73.11h-219.331v657.994c0.002 0.154 0.003 0.336 0.003 0.519 0 20.191-16.368 36.559-36.559 36.559-0.193 0-0.386-0.001-0.578-0.005h0.029z" />
<glyph unicode="&#xe934;" glyph-name="gift2" d="M341.333 917.333c-70.167 0-128-57.833-128-128 0-15 3.167-29.167 8-42.667h-221.333v-256h42.667v-554.667h938.667v554.667h42.667v256h-221.333c4.833 13.5 8 27.667 8 42.667 0 70.167-57.833 128-128 128-74.667 0-125.333-56.667-158.667-104-4.5-6.333-8-12.5-12-18.667-4 6.167-7.5 12.333-12 18.667-33.333 47.333-84 104-158.667 104zM341.333 832c26.667 0 61.333-28.667 88-66.667 6.5-9.333 5.5-9.833 10.667-18.667h-98.667c-24.167 0-42.667 18.5-42.667 42.667s18.5 42.667 42.667 42.667zM682.667 832c24.167 0 42.667-18.5 42.667-42.667s-18.5-42.667-42.667-42.667h-98.667c5.167 8.833 4.167 9.333 10.667 18.667 26.667 38 61.333 66.667 88 66.667zM85.333 661.333h853.333v-85.333h-384v42.667h-85.333v-42.667h-384zM128 490.667h768v-469.333h-341.333v426.667h-85.333v-426.667h-341.333z" />
<glyph unicode="&#xe935;" glyph-name="gift3" d="M236.308 920.615v-127.385l-137.231 82.385-40.615-67.538 75.001-44.999h-133.462v-748.308h236.308v78.769h-157.538v590.769h316.154c32.807 24.418 73.124 39.385 117.077 39.385 13.863 0 26.86-1.637 39.385-4v43.385h-133.462l75.001 44.999-40.615 67.538-137.231-82.385v127.385h-78.769zM512 644.923c-64.788 0-118.154-53.366-118.154-118.154 0-13.863 2.934-26.939 7.385-39.385h-86.154v-472.615h708.923v472.615h-86.154c4.49 12.446 7.385 25.521 7.385 39.385 0 64.788-53.366 118.154-118.154 118.154-68.923 0-115.702-52.283-146.462-96-4.135-5.829-7.414-11.596-11.077-17.307-3.702 5.711-6.942 11.439-11.077 17.307-30.799 43.717-77.538 96-146.462 96zM512 566.154c24.615 0 56.615-26.447 81.231-61.538 5.986-8.625 5.081-9.115 9.846-17.307h-91.077c-22.292 0-39.385 17.093-39.385 39.385s17.093 39.461 39.385 39.461zM827.077 566.154c22.292 0 39.385-17.093 39.385-39.385s-17.093-39.385-39.385-39.385h-91.077c4.805 8.153 3.86 8.645 9.846 17.231 24.615 35.092 56.615 61.538 81.231 61.538zM393.846 408.615h236.308v-315.077h-236.308v315.077zM708.923 408.615h236.308v-315.077h-236.308v315.077z" />
<glyph unicode="&#xe936;" glyph-name="gift4" d="M895.996 661.335h-133.72c56.093 51.271 91.135 124.755 91.135 206.424 0 2.43-0.032 4.851-0.096 7.264l0.008-0.352h-85.336c0-122.918-84.095-183.767-177.15-204.798 26.696 46.752 44.33 101.918 49.057 160.736l0.095 1.388c0 70.686-57.311 127.999-127.999 127.999s-127.999-57.311-127.999-127.999v0c4.821-60.207 22.455-115.381 50.17-164.073l-1.018 1.95c-93.055 21.031-177.15 81.88-177.15 204.798h-85.336c-0.052-2.060-0.090-4.481-0.090-6.912 0-81.668 35.042-155.152 90.917-206.231l0.218-0.193h-133.72c-70.686 0-127.999-57.311-127.999-127.999v0-170.662h85.336v-426.659h853.328v426.659h85.336v170.662c0 70.686-57.311 127.999-127.999 127.999v0zM512 874.659c23.566 0 42.663-19.104 42.663-42.663v0c-5.596-48.041-20.736-91.584-43.499-130.078l0.837 1.527c-21.926 36.966-37.078 80.509-42.524 127.008l-0.151 1.542c0 23.566 19.104 42.663 42.663 42.663v0zM85.341 533.336c0 23.566 19.104 42.663 42.663 42.663v0h341.334v-127.999h-383.996zM170.666 362.664h298.66v-341.334h-298.66zM853.334 21.341h-298.66v341.334h298.66zM938.659 448h-383.996v127.999h341.334c23.566 0 42.663-19.104 42.663-42.663v0z" />
<glyph unicode="&#xe937;" glyph-name="globe1" d="M512 960c-282.333 0-512-229.667-512-512s229.667-512 512-512c282.333 0 512 229.667 512 512s-229.667 512-512 512zM512 874.667c84 0 162-25 228-66.667l-34.667-4 8-85.333-45.333 20-37.333-32 6.667-88 92 29.333 114.667-37.333-29.333-53.333-69.333 42.667-74.667-10.667-73.333-54.667-41.333-128 82.667-68c0 0 84.833 14.667 89.333 14.667s36-77.333 36-77.333l-68-213.333c-55.5-26.5-118.167-41.333-184-41.333-13.5 0-26.833 1.5-40 2.667l-46.667 81.333 45.333 170.667-172 129.333h-158.667l-41.333 84 114.667 90.667 170.667 81.333-25.333 113.333 73.333 16 34.667-48 128 24-22.667 98.667-94.667 6.667c11.333 0.833 23 2.667 34.667 2.667zM464 872l-66.667-28-32 5.333c31.5 11.5 64.167 18.833 98.667 22.667zM88 414.667l41.333-48v-88l80-88h49.333l121.333-149.333c-161 52.167-278.5 198-292 373.333z" />
<glyph unicode="&#xe938;" glyph-name="globe2" d="M929.839 545.662c0 168.919-89.049 322.131-238.161 409.898-15.26 9.015-34.908 3.875-43.843-11.385-8.951-15.228-3.875-34.876 11.385-43.843 129.352-76.093 206.566-208.695 206.566-354.652 0-242.563-176.077-418.624-418.655-418.624-54.235 0-106.87 10.168-156.445 30.184-16.381 6.662-35.084-1.28-41.698-17.676-6.629-16.413 1.281-35.085 17.678-41.698 57.262-23.139 117.967-34.876 180.465-34.876 0.193 0 0.385 0.015 0.578 0.015v-63.058h-93.003c-18.479 0-33.467-14.315-33.467-31.978s14.988-31.963 33.467-31.963h253.051c18.479 0 33.467 14.315 33.467 31.962 0 17.678-14.988 31.978-33.467 31.978h-96.461v66.854c246.005 28.582 418.544 221.087 418.544 478.862zM799.605 542.781c0 194.812-157.871 353.692-352.683 353.692-194.844 0-352.748-158.879-352.748-353.692s157.903-351.722 352.748-351.722c194.812 0 352.683 156.91 352.683 351.722zM158.21 542.781c0 159.152 129.512 289.64 288.696 289.64 159.152 0 288.631-130.473 288.631-289.64s-129.48-287.671-288.631-287.671c-159.184 0-288.696 128.503-288.696 287.671z" />
<glyph unicode="&#xe939;" glyph-name="globe3" d="M512 960c-282.773 0-512-229.227-512-512s229.227-512 512-512c282.773 0 512 229.227 512 512v0c-0.315 282.646-229.355 511.686-511.967 512h-0.033zM880.936 661.336h-137.432c-33.078 75.705-73.413 140.976-121.533 199.615l1.174-1.471c110.684-30.791 201.221-101.912 256.702-196.138l1.090-2.006zM704 448c-0.381-45.838-7.777-89.813-21.172-131.085l0.863 3.085h-343.384c-12.525 38.187-19.932 82.162-20.311 127.811l-0.001 0.189c0.381 45.838 7.777 89.813 21.172 131.085l-0.865-3.085h343.384c12.525-38.187 19.932-82.162 20.311-127.811l0.001-0.189zM374.528 234.664h274.944c-38.367-74.87-84.166-139.28-137.853-196.162l0.381 0.411c-53.332 56.468-99.134 120.872-135.277 191.073l-2.195 4.685zM374.528 661.336c38.367 74.87 84.166 139.28 137.853 196.162l-0.381-0.411c53.332-56.468 99.134-120.872 135.277-191.073l2.195-4.685zM401.064 859.48c-47.028-57.169-87.433-122.439-118.461-192.773l-2.115-5.371h-137.432c56.616 96.278 147.236 167.401 254.998 197.426l3.011 0.718zM105 576h146.728c-10.562-38.32-16.771-82.373-17.062-127.829l-0.001-0.171c0.291-45.627 6.501-89.68 17.896-131.594l-0.832 3.594h-146.728c-12.475 38.26-19.672 82.289-19.672 128s7.198 89.741 20.511 131.020l-0.842-3.020zM143.064 234.664h137.432c33.143-75.705 73.548-140.975 121.74-199.599l-1.164 1.455c-110.761 30.743-201.382 101.866-256.918 196.139l-1.091 2.005zM623.144 36.52c46.946 57.168 87.282 122.439 118.246 192.765l2.113 5.379h137.432c-56.571-96.233-147.109-167.353-254.781-197.424l-3.011-0.72zM919 320h-146.728c10.562 38.32 16.771 82.373 17.062 127.829l0.001 0.171c-0.291 45.627-6.501 89.68-17.896 131.594l0.832-3.594h146.648c12.475-38.26 19.672-82.289 19.672-128s-7.198-89.741-20.513-131.020l0.842 3.020z" />
<glyph unicode="&#xe93a;" glyph-name="google" d="M1008.366 526.903l-5.166 21.92h-476.434v-201.646h284.663c-29.554-140.343-166.697-214.217-278.72-214.217-81.509 0-167.429 34.286-224.297 89.394-58.499 57.619-94.93 137.502-95.542 225.895l-0.001 0.117c0 84.937 38.171 169.897 93.714 225.783s139.429 87.154 222.834 87.154c95.52 0 163.977-50.72 189.577-73.851l143.291 142.537c-42.034 36.937-157.509 130.011-337.486 130.011-138.857 0-272-53.189-369.326-150.194-96.046-95.52-145.76-233.646-145.76-361.806s47.040-259.383 140.114-355.657c99.451-102.674 240.297-156.343 385.326-156.343 131.954 0 257.029 51.703 346.171 145.509 87.634 92.343 132.96 220.114 132.96 354.057 0 56.389-5.669 89.874-5.92 91.337z" />
<glyph unicode="&#xe93b;" glyph-name="grid_outline" d="M960-64h-320c-35.344 0-64 28.656-64 64v320c0 35.344 28.656 64 64 64h320c35.344 0 64-28.656 64-64v-320c0-35.344-28.656-64-64-64zM960 320h-320v-320h320v320zM960 512h-320c-35.344 0-64 28.656-64 64v320c0 35.344 28.656 64 64 64h320c35.344 0 64-28.656 64-64v-320c0-35.344-28.656-64-64-64zM960 896h-320v-320h320v320zM384-64h-320c-35.344 0-64 28.656-64 64v320c0 35.344 28.656 64 64 64h320c35.344 0 64-28.656 64-64v-320c0-35.344-28.656-64-64-64zM384 320h-320v-320h320v320zM384 512h-320c-35.344 0-64 28.656-64 64v320c0 35.344 28.656 64 64 64h320c35.344 0 64-28.656 64-64v-320c0-35.344-28.656-64-64-64zM384 896h-320v-320h320v320z" />
<glyph unicode="&#xe93c;" glyph-name="grid_outline2" d="M82.286 960c-44.953 0-82.286-37.333-82.286-82.286v-310.857c0-44.953 37.333-82.286 82.286-82.286h310.857c44.953 0 82.286 37.333 82.286 82.286v310.857c0 44.953-37.333 82.286-82.286 82.286zM82.286 886.857h310.857c5.698 0 9.143-3.445 9.143-9.143v-310.857c0-5.698-3.445-9.143-9.143-9.143h-310.857c-5.698 0-9.143 3.445-9.143 9.143v310.857c0 5.698 3.445 9.143 9.143 9.143zM630.857 960c-44.953 0-82.286-37.333-82.286-82.286v-310.857c0-44.953 37.333-82.286 82.286-82.286h310.857c44.953 0 82.286 37.333 82.286 82.286v310.857c0 44.953-37.333 82.286-82.286 82.286zM630.857 886.857h310.857c5.698 0 9.143-3.445 9.143-9.143v-310.857c0-5.698-3.445-9.143-9.143-9.143h-310.857c-5.698 0-9.143 3.445-9.143 9.143v310.857c0 5.698 3.445 9.143 9.143 9.143zM82.286 411.429c-44.953 0-82.286-37.333-82.286-82.286v-310.857c0-44.953 37.333-82.286 82.286-82.286h310.857c44.953 0 82.286 37.333 82.286 82.286v310.857c0 44.953-37.333 82.286-82.286 82.286zM82.286 338.286h310.857c5.698 0 9.143-3.445 9.143-9.143v-310.857c0-5.698-3.445-9.143-9.143-9.143h-310.857c-5.698 0-9.143 3.445-9.143 9.143v310.857c0 5.698 3.445 9.143 9.143 9.143zM630.857 411.429c-44.953 0-82.286-37.333-82.286-82.286v-310.857c0-44.953 37.333-82.286 82.286-82.286h310.857c44.953 0 82.286 37.333 82.286 82.286v310.857c0 44.953-37.333 82.286-82.286 82.286zM630.857 338.286h310.857c5.698 0 9.143-3.445 9.143-9.143v-310.857c0-5.698-3.445-9.143-9.143-9.143h-310.857c-5.698 0-9.143 3.445-9.143 9.143v310.857c0 5.698 3.445 9.143 9.143 9.143z" />
<glyph unicode="&#xe93d;" glyph-name="grid_solid" d="M393.143 484.571h-310.857c-45.446 0-82.286 36.84-82.286 82.286v0 310.857c0 45.446 36.84 82.286 82.286 82.286v0h310.857c45.446 0 82.286-36.84 82.286-82.286v0-310.857c0-45.446-36.84-82.286-82.286-82.286v0zM941.714 484.571h-310.857c-45.446 0-82.286 36.84-82.286 82.286v0 310.857c0 45.446 36.84 82.286 82.286 82.286v0h310.857c45.446 0 82.286-36.84 82.286-82.286v0-310.857c0-45.446-36.84-82.286-82.286-82.286v0zM393.143-64h-310.857c-45.446 0-82.286 36.84-82.286 82.286v0 310.857c0 45.446 36.84 82.286 82.286 82.286v0h310.857c45.446 0 82.286-36.84 82.286-82.286v0-310.857c0-45.446-36.84-82.286-82.286-82.286v0zM941.714-64h-310.857c-45.446 0-82.286 36.84-82.286 82.286v0 310.857c0 45.446 36.84 82.286 82.286 82.286v0h310.857c45.446 0 82.286-36.84 82.286-82.286v0-310.857c0-45.446-36.84-82.286-82.286-82.286v0z" />
<glyph unicode="&#xe93e;" glyph-name="headset1" d="M512 960.001c-265.101 0-512.001-227.912-512.001-512.001 0-94.644 52.413-229.489 82.545-305.977 5.393-13.898 18.659-23.571 34.185-23.571 20.2 0 36.575 16.375 36.575 36.575 0 4.978-0.994 9.725-2.797 14.051l0.089-0.242c-29.296 74.368-77.455 215.5-77.455 279.166 0 241.078 216.324 438.858 438.858 438.858s438.858-197.78 438.858-438.858c0-62.961-50.39-209.243-77.536-279.371-1.657-4.024-2.619-8.695-2.619-13.592 0-20.2 16.375-36.575 36.575-36.575 15.598 0 28.915 9.765 34.174 23.514l0.085 0.25c27.711 71.586 82.464 210.425 82.464 305.773 0 284.088-246.9 512.001-512.001 512.001zM197.759 456.759c-14.078 1.063-28.565-1.907-41.522-9.433l-0.040-0.023-0.040-0.026-31.321-18.299c-48.504-28.4-70.516-83.983-72.125-142.71s15.743-124.103 51.089-186.246c35.361-62.169 82.607-110.201 133.844-138.26 51.231-28.055 110.406-36.455 158.911-8.080l31.553 18.438c34.032 20.269 45.869 65.046 26.295 99.482l-0.009 0.014-198.549 348.656c-12.282 21.745-34.621 34.715-58.085 36.487zM826.241 456.759c-23.464-1.771-45.802-14.742-58.085-36.487l-198.558-348.648c-19.575-34.435-7.737-79.214 26.295-99.482l31.536-18.427c48.503-28.383 107.673-19.982 158.897 8.075s98.46 76.082 133.862 138.237c35.401 62.151 52.762 127.537 51.138 186.268s-23.666 114.304-72.169 142.688l-0.009 0.005-31.384 18.339c-12.958 7.526-27.445 10.496-41.522 9.433zM192.455 383.777l198.358-348.322c0.294-0.507 0.386-0.184-0.129-0.491l-31.049-18.143c-20.589-12.048-50.298-10.928-86.862 9.094s-76.023 58.631-105.393 110.268c-29.385 51.663-42.719 105.716-41.558 148.080s15.379 69.536 35.974 81.594zM831.545 383.777l30.688-17.933c20.584-12.056 34.807-39.224 35.977-81.567 1.17-42.355-12.154-96.394-41.576-148.049-29.421-51.651-68.894-90.269-105.447-110.29s-66.228-21.145-86.822-9.094l-0.009 0.005-31.040 18.143c-0.502 0.294-0.421-0.016-0.129 0.487 0.002 0.005-0.002 0 0 0.005z" />
<glyph unicode="&#xe93f;" glyph-name="headset2" d="M1010.581 68.352l-327.083-130.837c-2.517-1.003-5.205-1.515-7.915-1.515h-206.251c-11.776 0-21.333 9.536-21.333 21.333v42.667c0 11.797 9.557 21.333 21.333 21.333h85.333c11.797 0 21.333-9.536 21.333-21.333v-21.333h95.488l213.333 85.333h-24.363c-50.987 0-92.459 40.213-92.459 89.621v204.779c0 49.408 41.472 89.6 92.459 89.6h71.125c18.347 0 35.349-5.355 49.749-14.336v14.336c0 258.795-210.539 469.333-469.333 469.333s-469.333-210.539-469.333-469.333v-14.336c14.4 8.981 31.424 14.336 49.792 14.336h71.125c50.965 0 92.416-40.192 92.416-89.6v-204.779c0-49.408-41.451-89.621-92.416-89.621h-71.125c-50.987 0-92.459 40.213-92.459 89.621v294.379c0 282.304 229.696 512 512 512s512-229.696 512-512v-359.829c0-8.725-5.312-16.576-13.419-19.819zM42.667 349.867v-196.245c0-25.899 22.336-46.955 49.792-46.955h71.125c27.435 0 49.749 21.056 49.749 46.955v204.779c0 25.877-22.315 46.933-49.749 46.933h-71.125c-27.456 0-49.792-21.056-49.792-46.933v-8.533zM931.584 405.333h-71.125c-27.456 0-49.792-21.056-49.792-46.933v-204.779c0-25.899 22.336-46.955 49.792-46.955h71.125c27.435 0 49.749 21.056 49.749 46.955v204.779c0 25.877-22.315 46.933-49.749 46.933z" />
<glyph unicode="&#xe940;" glyph-name="headset3" d="M158.534 606.534h-128.534c-16.568 0-30-13.432-30-30v-321.334c0-16.568 13.432-30 30-30h128.534c16.568 0 30 13.432 30 30v321.334c0 16.568-13.432 30-30 30zM720.868 259.466c16.568 0 30 13.432 30 30v66.4h2.132c16.568 0 30 13.432 30 30s-13.432 30-30 30h-2.132v162.8c0 12.132-7.308 23.072-18.518 27.716-11.206 4.644-24.11 2.080-32.692-6.5-0.002 0-93.666-93.634-138.074-138.010-19.946-20.054-31.384-47.758-31.384-76.006 0-16.568 13.432-30 30-30h130.668v-66.4c0-16.568 13.43-30 30-30zM600.81 415.866c1.020 1.264 2.104 2.476 3.25 3.63 22.47 22.454 57.612 57.578 86.806 86.762v-90.392zM477.732 289.466c0 16.568-13.432 30-30 30h-120.054c1.018 1.264 2.102 2.478 3.248 3.63 44.346 44.314 138.016 137.954 138.016 137.954 5.628 5.626 8.792 13.258 8.792 21.216v16.066c0 60.838-49.494 110.334-110.332 110.334-61.416 0-110.334-49.748-110.334-110.3v-0.032c0-16.568 13.432-29.984 30-29.984s30 13.448 30 30.016c0 27.522 22.16 50.3 50.334 50.3 27.754 0 50.332-22.58 50.332-50.334v-3.636c-24.326-24.318-93.128-93.094-129.284-129.226-19.946-20.054-31.382-47.758-31.382-76.004 0-16.568 13.432-30 30-30h160.666c16.566 0 29.998 13.432 29.998 30zM512 900c150.572 0 277.444-103.416 313.322-242.95 12.094 6.056 25.724 9.484 40.146 9.484h19.306c-40.604 168.162-192.32 293.466-372.774 293.466s-332.17-125.304-372.772-293.466h19.306c14.422 0 28.050-3.428 40.146-9.484 35.876 139.534 162.748 242.95 313.32 242.95zM819.462 177.886c-29.988-69.134-98.898-117.62-178.928-117.62h-39.188c-12.562 37.31-47.854 64.266-89.344 64.266-51.978 0-94.268-42.288-94.268-94.266s42.288-94.266 94.266-94.266c41.49 0 76.782 26.956 89.344 64.266h39.188c108.902 0 202.058 68.646 238.512 164.934h-13.578c-16.8 0-32.532 4.64-46.004 12.686zM994 606.534h-128.534c-16.568 0-30-13.432-30-30v-321.334c0-16.568 13.432-30 30-30h128.534c16.568 0 30 13.432 30 30v321.334c0 16.568-13.432 30-30 30z" />
<glyph unicode="&#xe941;" glyph-name="headset4" d="M1024 400c0 83.324-59.1 151.742-133.716 157.552-8.85 29.826-32.762 53.228-62.892 61.346-20.092 165.166-154.212 291.102-315.392 291.102s-295.3-125.936-315.39-291.102c-30.13-8.118-54.044-31.518-62.892-61.346-2.592-0.202-5.164-0.48-7.716-0.832v195.28c0 16.568-13.432 30-30 30s-30-13.432-30-30v-219.292c-39.674-28.168-66.002-77.112-66.002-132.708 0-83.324 59.1-151.742 133.716-157.552 8.822-29.732 32.61-53.074 62.606-61.264 12.78-74.388 77.7-131.184 155.678-131.184h6.938c12.552-37.16 47.72-64 89.062-64h128c51.832 0 94 42.168 94 94s-42.168 94-94 94h-128c-41.342 0-76.51-26.84-89.062-64h-6.938c-45.366 0-83.62 30.992-94.732 72.912 35.296 12.176 60.732 45.708 60.732 85.088v264c0 39.518-25.612 73.144-61.1 85.212 18.74 132.512 126.292 232.788 255.1 232.788s236.36-100.276 255.1-232.788c-35.488-12.068-61.1-45.694-61.1-85.212v-264c0-49.626 40.374-90 90-90h8c40.75 0 75.242 27.232 86.284 64.448 74.616 5.81 133.716 74.228 133.716 157.552zM448 114h128c18.748 0 34-15.252 34-34s-15.252-34-34-34h-128c-18.748 0-34 15.252-34 34s15.252 34 34 34zM60 400c0 47.574 30.85 88.536 70 96.574v-193.146c-39.15 8.036-70 48.998-70 96.572zM258 268c0-16.542-13.458-30-30-30h-8c-16.542 0-30 13.458-30 30 0 96.268 0 175.008 0 264 0 16.542 13.458 30 30 30h8c16.542 0 30-13.458 30-30zM834 268c0-16.542-13.458-30-30-30h-8c-16.542 0-30 13.458-30 30v264c0 16.542 13.458 30 30 30h8c16.542 0 30-13.458 30-30zM894 303.426v193.146c39.15-8.038 70-49 70-96.574s-30.85-88.534-70-96.572z" />
<glyph unicode="&#xe942;" glyph-name="heart1" d="M288.414 845.077c31.316 0 87.925-14.979 179.749-105.414l45.529-44.826 44.842 45.545c63.75 64.772 131.587 104.998 177.036 104.998 61.29 0 109.598-20.968 156.708-67.965 44.379-44.283 68.86-103.162 68.86-165.794 0.032-62.664-24.401-121.59-69.275-166.352-3.657-3.705-196.614-211.897-358.272-386.362-7.617-7.234-16.321-8.304-20.951-8.304-4.567 0-13.175 1.022-20.76 8.080-39.396 43.821-324.928 361.306-358.127 394.474-44.443 44.331-68.893 103.258-68.893 165.905 0.015 62.632 24.464 121.495 68.908 165.825 43.212 43.181 93.804 60.188 154.647 60.188zM288.412 908.955c-76.381 0-143.724-22.851-199.792-78.857-116.848-116.544-116.848-305.541 0-422.149 33.36-33.376 357.169-393.581 357.169-393.581 18.445-18.461 42.671-27.627 66.832-27.627 24.179 0 48.307 9.166 66.784 27.627 0 0 354.2 382.29 357.968 386.108 116.816 116.656 116.816 305.653 0 422.196-58.001 57.889-122.788 86.618-201.82 86.618-75.503 0-159.693-60.204-222.58-124.082-64.867 63.862-146.455 123.746-224.561 123.746z" />
<glyph unicode="&#xe943;" glyph-name="heart2" d="M274.286 850.286c-151.286 0-274.286-124.429-274.286-274.286 0-52.286 23.714-97.571 45.714-130.286s44.571-53.714 44.571-53.714l421.714-422.857 26.286 26.286 395.429 396.571c0 0 90.286 79.571 90.286 184 0 149.857-123 274.286-274.286 274.286-125.571 0-206.429-75.571-237.714-107.429-31.286 31.857-112.143 107.429-237.714 107.429zM274.286 777.143c109.286 0 210.286-106.286 210.286-106.286l27.429-30.857 27.429 30.857c0 0 101 106.286 210.286 106.286 111.286 0 201.143-91.286 201.143-201.143 0-56.429-68.571-132.571-68.571-132.571l-370.286-370.286-370.286 370.286c0 0-17.714 17-35.429 43.429s-33.143 60.857-33.143 89.143c0 109.857 89.857 201.143 201.143 201.143z" />
<glyph unicode="&#xe944;" glyph-name="heart2_solid" d="M749.714 850.286c-105.765 0-194.816-65.975-237.714-104.375-42.898 38.4-131.95 104.375-237.714 104.375-151.259 0-274.286-123.026-274.286-274.286 0-94.72 86.491-180.919 89.966-184.357l422.034-422.034 421.815 421.815c3.694 3.657 90.185 89.856 90.185 184.576 0 151.259-123.026 274.286-274.286 274.286z" />
<glyph unicode="&#xe945;" glyph-name="heart3" d="M273.44 920.591c-151.83 0-271.874-127.028-273.413-277.269 0-0.001 0-0.001 0-0.002s0-0.001 0-0.002v0c-1.461-145.191 56.925-270.143 144.276-376.634 87.342-106.479 203.524-196.277 323.392-277.635 0.007-0.005 0.017-0.010 0.025-0.015 0.005-0.002 0.010-0.007 0.015-0.010 26.631-18.096 61.949-18.089 88.573 0.025 119.856 81.359 236.031 171.155 323.373 277.635 87.349 106.489 145.743 231.439 144.294 376.629 0 0.001 0 0.004 0 0.005s0 0.004 0 0.005v0c-1.541 150.24-121.584 277.269-273.413 277.269-118.748 0-197.152-73.042-238.56-125.912-41.408 52.87-119.81 125.912-238.56 125.912zM273.44 841.826c133.912 0 203.336-135.763 203.336-135.763 6.613-13.007 19.896-21.764 35.224-21.764s28.611 8.756 35.121 21.54l0.103 0.224c0 0 69.424 135.763 203.336 135.763 107.897 0 193.528-90.265 194.648-199.307 1.233-123.911-47.127-229.203-126.43-325.882-79.305-96.682-189.676-182.98-306.743-262.443-0.121-0.085-0.13-0.092-0.142-0.101l0.108 0.076c0.14-0.085 0.128-0.076 0.116-0.069l-0.154 0.094c-117.079 79.463-227.453 165.762-306.758 262.443-79.303 96.678-127.656 201.967-126.412 325.877v0.005c1.12 109.043 86.751 199.307 194.648 199.307z" />
<glyph unicode="&#xe946;" glyph-name="heart4" d="M748.309 850.29c-90.103 0-187.92-40.227-236.309-120.687-48.387 80.46-146.213 120.687-236.309 120.687-157.644 0-275.698-98.828-275.698-264.643 0-71.515 28.713-164.398 93.538-241.507 64.821-77.107 103.383-118.173 228.921-201.145 125.545-82.976 189.541-97.292 189.541-97.292s64.003 14.316 189.541 97.292c125.543 82.972 164.1 124.038 228.921 201.145 64.825 77.103 93.538 169.985 93.538 241.507 0 165.808-118.054 264.643-275.698 264.643zM902.473 367.679c-61.38-73.008-96.411-111.758-221.099-194.165-91.972-60.792-149.149-82.974-169.376-89.674-20.227 6.702-77.402 28.886-169.376 89.674-124.679 82.407-159.717 121.155-221.099 194.167-27.575 32.8-49.963 71.487-64.722 111.873-13.233 36.21-20.231 72.901-20.231 106.1 0 69.224 23.153 127.184 66.968 167.622 20.889 19.288 46.074 34.265 74.864 44.538 29.586 10.558 62.32 15.906 97.296 15.906 86.899 0 167.355-40.418 204.971-102.967l31.338-52.108 31.338 52.108c37.618 62.548 118.074 102.967 204.971 102.967 34.969 0 67.703-5.348 97.296-15.904 28.783-10.268 53.969-25.252 74.864-44.538 43.807-40.44 66.968-98.406 66.968-167.624 0-33.199-6.998-69.89-20.235-106.1-14.764-40.384-37.146-79.066-64.722-111.875z" />
<glyph unicode="&#xe947;" glyph-name="heart5" d="M746.667 920.875c-100.624-1.615-187.857-57.412-233.958-139.428l-0.709-1.372c-46.81 83.388-134.043 139.185-234.442 140.797l-0.224 0.003c-154.725-6.931-277.54-134.053-277.54-289.86 0-3.847 0.075-7.677 0.223-11.488l-0.017 0.548c0-289.067 467.456-622.933 487.339-637.099l24.661-17.451 24.661 17.451c19.883 14.080 487.339 348.032 487.339 637.099 0.131 3.263 0.206 7.093 0.206 10.94 0 155.807-122.815 282.929-276.917 289.838l-0.623 0.022zM512 70.571c-138.795 103.68-426.667 358.4-426.667 549.504-0.19 3.301-0.298 7.162-0.298 11.049 0 108.71 84.7 197.637 191.706 204.388l0.592 0.030c107.599-6.781 192.298-95.708 192.298-204.418 0-3.887-0.108-7.748-0.322-11.581l0.024 0.532h85.333c-0.19 3.301-0.298 7.162-0.298 11.049 0 108.71 84.7 197.637 191.706 204.388l0.592 0.030c107.599-6.781 192.298-95.708 192.298-204.418 0-3.887-0.108-7.748-0.322-11.581l0.024 0.532c0-191.189-287.872-445.824-426.667-549.504z" />
<glyph unicode="&#xe948;" glyph-name="heart5_solid" d="M746.577 920.688c-100.587-1.615-187.786-57.389-233.87-139.375l-0.707-1.371c-46.791 83.353-133.989 139.131-234.355 140.742l-0.221 0.004c-154.668-6.929-277.433-134.001-277.433-289.749 0-3.85 0.078-7.669 0.219-11.489l-0.021 0.55c0-288.956 467.27-622.684 487.145-636.848l24.652-17.448 24.652 17.448c19.875 14.072 487.145 347.892 487.145 636.848 0.134 3.257 0.208 7.087 0.208 10.939 0 155.751-122.765 282.823-276.805 289.726l-0.626 0.027z" />
<glyph unicode="&#xe949;" glyph-name="help" d="M512 960c-282.337 0-512-229.663-512-512s229.663-512 512-512c282.337 0 512 229.663 512 512s-229.663 512-512 512zM512 886.857c242.807 0 438.857-196.050 438.857-438.857s-196.050-438.857-438.857-438.857c-242.807 0-438.857 196.050-438.857 438.857s196.050 438.857 438.857 438.857zM512 667.429c-120.754 0-219.429-98.674-219.429-219.429s98.674-219.429 219.429-219.429c120.754 0 219.429 98.674 219.429 219.429s-98.674 219.429-219.429 219.429zM512 594.286c81.224 0 146.286-65.062 146.286-146.286s-65.062-146.286-146.286-146.286c-81.224 0-146.286 65.062-146.286 146.286s65.062 146.286 146.286 146.286zM403.147 946.794c-0.266 0.007-0.579 0.011-0.893 0.011-20.2 0-36.575-16.375-36.575-36.575 0-0.961 0.037-1.913 0.11-2.855l-0.008 0.125 18.286-301.714c0.937-19.451 16.936-34.869 36.535-34.869 20.2 0 36.575 16.375 36.575 36.575 0 0.958-0.037 1.907-0.109 2.847l0.008-0.125-18.286 301.714c-0.918 19.145-16.424 34.382-35.597 34.865l-0.046 0.001zM623.406 946.768c-0.496 0.024-1.077 0.038-1.661 0.038-19.602 0-35.603-15.422-36.533-34.793l-0.003-0.083-18.286-301.714c-0.065-0.815-0.102-1.763-0.102-2.722 0-20.2 16.375-36.575 36.575-36.575 19.6 0 35.599 15.416 36.533 34.784l0.003 0.083 18.286 301.714c0.065 0.817 0.102 1.769 0.102 2.73 0 19.616-15.442 35.625-34.833 36.535l-0.082 0.003zM974.054 594.321c-0.907-0.005-1.798-0.042-2.679-0.111l0.126 0.008-301.714-18.286c-19.451-0.937-34.869-16.936-34.869-36.535 0-20.2 16.375-36.575 36.575-36.575 0.958 0 1.907 0.037 2.847 0.109l-0.125-0.008 301.714 18.286c19.47 0.915 34.909 16.923 34.909 36.537 0 20.2-16.375 36.575-36.575 36.575-0.073 0-0.146 0-0.219-0.001h0.011zM48.843 594.307c-19.791-0.526-35.633-16.694-35.633-36.563 0-19.597 15.413-35.594 34.777-36.531l0.085-0.003 301.714-18.286c0.815-0.065 1.763-0.102 2.722-0.102 20.2 0 36.575 16.375 36.575 36.575 0 19.6-15.416 35.599-34.784 36.533l-0.083 0.003-301.714 18.286c-0.815 0.064-1.763 0.102-2.721 0.102-0.329 0-0.657-0.005-0.984-0.013l0.048 0.001zM352.339 393.178c-0.907-0.005-1.798-0.042-2.679-0.111l0.126 0.008-301.714-18.286c-19.451-0.937-34.869-16.936-34.869-36.535 0-20.2 16.375-36.575 36.575-36.575 0.958 0 1.907 0.037 2.847 0.109l-0.125-0.008 301.714 18.286c19.47 0.915 34.909 16.923 34.909 36.537 0 20.2-16.375 36.575-36.575 36.575-0.073 0-0.146 0-0.219-0.001h0.011zM670.558 393.165c-19.793-0.523-35.638-16.693-35.638-36.563 0-19.599 15.415-35.597 34.782-36.531l0.083-0.003 301.714-18.286c0.815-0.065 1.763-0.102 2.722-0.102 20.2 0 36.575 16.375 36.575 36.575 0 19.6-15.416 35.599-34.784 36.533l-0.083 0.003-301.714 18.286c-0.815 0.064-1.763 0.102-2.721 0.102-0.329 0-0.657-0.005-0.984-0.013l0.048 0.001zM604.29 325.080c-0.266 0.007-0.579 0.011-0.893 0.011-20.2 0-36.575-16.375-36.575-36.575 0-0.961 0.037-1.913 0.11-2.855l-0.008 0.125 18.286-301.714c0.937-19.451 16.936-34.869 36.535-34.869 20.2 0 36.575 16.375 36.575 36.575 0 0.958-0.037 1.907-0.109 2.847l0.008-0.125-18.286 301.714c-0.918 19.145-16.424 34.382-35.597 34.865l-0.046 0.001zM422.263 325.053c-0.496 0.024-1.077 0.038-1.661 0.038-19.602 0-35.603-15.422-36.533-34.793l-0.003-0.083-18.286-301.714c-0.065-0.815-0.102-1.763-0.102-2.722 0-20.2 16.375-36.575 36.575-36.575 19.6 0 35.599 15.416 36.533 34.784l0.003 0.083 18.286 301.714c0.065 0.817 0.102 1.769 0.102 2.73 0 19.616-15.442 35.625-34.833 36.535l-0.082 0.003z" />
<glyph unicode="&#xe94a;" glyph-name="help_outline" d="M460.8 140.8h102.4v102.4h-102.4v-102.4zM512 960c-282.624 0-512-229.376-512-512s229.376-512 512-512 512 229.376 512 512-229.376 512-512 512zM512 38.401c-225.792 0-409.599 183.807-409.599 409.599s183.807 409.599 409.599 409.599 409.599-183.807 409.599-409.599-183.807-409.599-409.599-409.599zM512 755.2c-113.152 0-204.8-91.648-204.8-204.8h102.4c0 56.32 46.080 102.4 102.4 102.4s102.4-46.080 102.4-102.4c0-102.4-153.6-89.6-153.6-255.999h102.4c0 115.2 153.6 128 153.6 255.999 0 113.152-91.648 204.8-204.8 204.8z" />
<glyph unicode="&#xe94b;" glyph-name="history" d="M558.095 862.857c-229.092 0-414.857-185.765-414.857-414.857h-138.285l179.309-179.309 3.228-6.454 186.225 185.765h-138.285c0 178.389 144.279 322.667 322.667 322.667s322.667-144.279 322.667-322.667-144.279-322.667-322.667-322.667c-88.963 0-169.63 36.416-227.71 94.956l-65.456-65.456c75.135-75.135 178.389-121.69 293.166-121.69 229.092 0 414.857 185.765 414.857 414.857s-185.765 414.857-414.857 414.857zM512 632.38v-230.476l195.904-116.16 35.494 59.001-162.255 96.338v191.295z" />
<glyph unicode="&#xe94c;" glyph-name="home1" d="M136.213 576.418c-18.622-0.289-33.607-15.452-33.607-34.116 0-0.17 0.001-0.34 0.003-0.51v0.026-503.21c0-37.279 30.953-68.232 68.232-68.232h204.696c18.841 0.002 34.114 15.275 34.116 34.116v0 289.985c0 9.825 7.233 17.058 17.058 17.058h170.58c9.825 0 17.058-7.233 17.058-17.058v-289.985c0.002-18.841 15.275-34.114 34.116-34.116h204.696c37.279 0 68.232 30.953 68.232 68.232v503.21c0.002 0.144 0.003 0.312 0.003 0.483 0 18.844-15.275 34.119-34.119 34.119s-34.119-15.275-34.119-34.119c0-0.17 0.001-0.339 0.003-0.509v0.026-503.21h-170.58v255.869c0 46.7-38.589 85.29-85.29 85.29h-170.58c-46.7 0-85.29-38.589-85.29-85.29v-255.869h-170.58v503.21c0.002 0.144 0.003 0.313 0.003 0.484 0 18.844-15.275 34.119-34.119 34.119-0.18 0-0.36-0.001-0.539-0.004h0.027zM512.133 925.586c-16.138 0.029-33.576-3.888-48.046-19.070l1.103 1.108-454.406-434.978c-6.646-6.241-10.785-15.084-10.785-24.893 0-18.844 15.275-34.119 34.119-34.119 9.286 0 17.704 3.709 23.857 9.726l-0.006-0.006 453.078 433.711c0.129 0.097 0.317 0.289 0.966 0.288s0.834-0.205 0.962-0.308l453.056-433.691c6.146-6.012 14.565-9.721 23.85-9.721 18.844 0 34.119 15.275 34.119 34.119 0 9.809-4.14 18.652-10.768 24.876l-0.018 0.017-160.056 153.214v231.532c-0.002 18.841-15.275 34.114-34.116 34.116h-102.348c-18.841-0.002-34.114-15.275-34.116-34.116v0-68.245l-122.587 117.291c-14.413 15.221-31.721 19.12-47.859 19.149zM750.811 823.275h34.116v-132.103l-34.116 32.659z" />
<glyph unicode="&#xe94d;" glyph-name="home2" d="M569.087 924.456c-15.057 13.592-35.102 21.907-57.087 21.907s-42.031-8.315-57.165-21.97l0.078 0.068-454.912-409.423v-443.736c0-75.399 61.125-136.534 136.534-136.534v0h750.932c75.399 0 136.534 61.125 136.534 136.534v0 443.736zM639.999 20.227h-255.999v214.438c0 70.693 57.313 127.999 127.999 127.999s127.999-57.313 127.999-127.999v0zM938.671 71.424c0-28.281-22.92-51.197-51.197-51.197h-162.139v214.438c0 117.819-95.507 213.335-213.335 213.335s-213.335-95.507-213.335-213.335v0-214.438h-162.139c-28.281 0-51.197 22.92-51.197 51.197v0 405.625l426.671 383.996 426.671-383.996z" />
<glyph unicode="&#xe94e;" glyph-name="home3" d="M512 771.073l256-230.4v-399.873h-102.4v307.2h-307.2v-307.2h-102.4v399.873l256 230.4zM512 908.8l-512.001-460.8h153.6v-409.6h307.2v307.2h102.4v-307.2h307.2v409.6h153.6l-512.001 460.8z" />
<glyph unicode="&#xe94f;" glyph-name="instagram" d="M512 867.761c136.707 0 152.925-0.512 206.892-2.983 55.809-2.56 113.283-15.271 153.949-55.937 41.050-41.050 53.377-97.961 55.937-153.949 2.471-53.979 2.983-70.184 2.983-206.892s-0.512-152.925-2.983-206.892c-2.521-55.515-15.527-113.539-55.937-153.949-41.050-41.050-97.922-53.377-153.949-55.937-53.979-2.471-70.184-2.983-206.892-2.983s-152.925 0.512-206.892 2.983c-55.080 2.521-113.884 15.834-153.949 55.937-40.833 40.833-53.377 98.306-55.937 153.949-2.471 53.979-2.983 70.184-2.983 206.892s0.512 152.925 2.983 206.892c2.521 55.297 15.655 113.667 55.937 153.949 40.961 40.961 98.089 53.377 153.949 55.937 53.979 2.471 70.184 2.983 206.892 2.983zM512 960.012c-139.050 0-156.509-0.601-211.116-3.072-79.145-3.623-157.738-25.639-214.956-82.857-57.435-57.435-79.234-135.85-82.857-214.956-2.471-54.619-3.072-72.066-3.072-211.116s0.601-156.509 3.072-211.116c3.623-79.067 25.729-157.866 82.857-214.956 57.384-57.384 135.939-79.234 214.956-82.857 54.619-2.471 72.066-3.072 211.116-3.072s156.509 0.601 211.116 3.072c79.106 3.623 157.789 25.69 214.956 82.857 57.473 57.473 79.234 135.85 82.857 214.956 2.471 54.619 3.072 72.066 3.072 211.116s-0.601 156.509-3.072 211.116c-3.623 79.145-25.69 157.789-82.857 214.956-57.307 57.307-136.067 79.273-214.956 82.857-54.619 2.471-72.066 3.072-211.116 3.072zM512 710.918c-145.194 0-262.918-117.724-262.918-262.918s117.724-262.918 262.918-262.918 262.918 117.724 262.918 262.918c0 145.194-117.724 262.918-262.918 262.918zM512 277.333c-94.249 0-170.667 76.418-170.667 170.667s76.418 170.667 170.667 170.667 170.667-76.418 170.667-170.667-76.418-170.667-170.667-170.667zM846.767 721.325c0-33.935-27.506-61.441-61.441-61.441s-61.441 27.506-61.441 61.441c0 33.935 27.506 61.441 61.441 61.441s61.441-27.506 61.441-61.441z" />
<glyph unicode="&#xe950;" glyph-name="label" d="M796.125 758.872c-18.169 25.737-48.448 42.392-82.26 42.392l-555.129-0.506c-55.513 0-100.931-44.915-100.931-100.429v-504.661c0-55.513 45.418-100.429 100.931-100.429l555.129-0.506c33.812 0 64.094 16.654 82.26 42.392l220.538 310.872-220.538 310.872zM713.867 195.669h-555.129v504.661h555.129l179.156-252.331-179.156-252.331z" />
<glyph unicode="&#xe951;" glyph-name="life_ring" d="M1024.008 448c0 0.041 0 0.095 0 0.159 0 126.267-45.92 241.814-121.973 330.841l0.588-0.703 36.698 36.698-60.378 60.328-36.698-36.698c-88.377 75.469-203.971 121.381-330.284 121.381s-241.906-45.92-330.991-121.973l0.708 0.592-36.698 36.698-60.289-60.378 36.698-36.698c-75.469-88.377-121.381-203.971-121.381-330.284s45.92-241.906 121.973-330.991l-0.592 0.708-36.698-36.698 60.378-60.289 36.698 36.698c88.377-75.469 203.971-121.381 330.284-121.381s241.906 45.92 330.991 121.973l-0.708-0.592 36.698-36.698 60.289 60.378-36.698 36.698c75.469 88.324 121.385 203.871 121.385 330.138 0 0.034 0 0.081 0 0.115v-0.007zM938.67 448c0-0.095 0-0.223 0-0.343 0-102.655-36.444-196.801-97.088-270.205l0.575 0.72-152.361 152.361c22.263 33.010 35.544 73.693 35.544 117.467s-13.28 84.448-36.016 118.221l0.479-0.754 152.361 152.361c60.069-72.685 96.514-166.83 96.514-269.486 0-0.117 0-0.234 0-0.351v0.023zM383.998 448c0 70.687 57.312 128.002 128.002 128.002s128.002-57.312 128.002-128.002c0-70.687-57.312-128.002-128.002-128.002v0c-70.687 0-128.002 57.312-128.002 128.002v0zM512 874.67c0.095 0 0.223 0 0.343 0 102.655 0 196.801-36.444 270.205-97.088l-0.72 0.575-152.361-152.361c-33.010 22.263-73.693 35.544-117.467 35.544s-84.448-13.28-118.221-36.016l0.754 0.479-152.361 152.361c72.685 60.069 166.83 96.514 269.486 96.514 0.117 0 0.234 0 0.351 0h-0.023zM85.33 448c0 0.095 0 0.223 0 0.343 0 102.655 36.444 196.801 97.088 270.205l-0.575-0.72 152.361-152.361c-22.263-33.010-35.544-73.693-35.544-117.467s13.28-84.448 36.016-118.221l-0.479 0.754-152.361-152.361c-60.069 72.685-96.514 166.83-96.514 269.486 0 0.117 0 0.234 0 0.351v-0.023zM512 21.33c-0.095 0-0.223 0-0.343 0-102.655 0-196.801 36.444-270.205 97.088l0.72-0.575 152.361 152.361c33.010-22.263 73.693-35.544 117.467-35.544s84.448 13.28 118.221 36.016l-0.754-0.479 152.361-152.361c-72.685-60.069-166.83-96.514-269.486-96.514-0.117 0-0.234 0-0.351 0h0.023z" />
<glyph unicode="&#xe952;" glyph-name="lightbulb" d="M358.4-12.8c0-28.16 23.040-51.2 51.2-51.2h204.8c28.16 0 51.2 23.040 51.2 51.2v51.2h-307.2v-51.2zM512 960c-197.631 0-358.4-160.767-358.4-358.4 0-121.856 60.928-228.864 153.6-293.888v-115.712c0-28.16 23.040-51.2 51.2-51.2h307.2c28.16 0 51.2 23.040 51.2 51.2v115.712c92.672 65.024 153.6 172.032 153.6 293.888 0 197.631-160.767 358.4-358.4 358.4zM657.92 391.68l-43.52-30.72v-117.76h-204.8v117.76l-43.52 30.72c-69.12 48.128-110.080 126.464-110.080 209.919 0 141.312 114.688 255.999 255.999 255.999s255.999-114.688 255.999-255.999c0-83.456-40.96-161.792-110.080-209.919z" />
<glyph unicode="&#xe953;" glyph-name="line" d="M793.18 960.005h-562.349c-127.489 0-230.826-103.336-230.826-230.826v-562.349c0-127.489 103.336-230.826 230.826-230.826h562.349c127.489 0 230.826 103.336 230.826 230.826v562.349c0 127.489-103.386 230.826-230.826 230.826zM780.124 325.759v0c-71.642-82.433-231.771-182.875-268.202-198.235s-31.065 9.767-29.568 18.432c0.896 5.12 4.864 29.223 4.864 29.223 1.152 8.704 2.343 22.233-1.113 30.848-3.84 9.511-18.944 14.425-30.080 16.857-164.059 21.671-285.532 136.361-285.532 273.322 0 152.745 153.178 277.084 341.419 277.084s341.419-124.289 341.419-277.084c-0.039-61.096-23.719-116.186-73.217-170.459zM674.562 532.826v-25.127h65.192c3.584 0 6.528-2.944 6.528-6.528v-24.231c0-3.584-2.905-6.528-6.528-6.528h-65.192v-25.127h65.192c3.584 0 6.528-2.944 6.528-6.528v-24.231c0-3.584-2.905-6.489-6.528-6.489h-95.912c-3.584 0-6.528 2.905-6.528 6.489v149.033c0 3.584 2.905 6.528 6.528 6.528h95.912c3.584 0 6.528-2.905 6.528-6.528v-24.192c0-3.584-2.905-6.528-6.528-6.528h-65.192zM391.423 438.745v-24.231c0-3.584-2.905-6.489-6.528-6.489h-95.912c-3.584 0-6.489 2.905-6.489 6.489v149.033c0 3.584 2.905 6.528 6.489 6.528h24.231c3.584 0 6.528-2.905 6.528-6.528v-118.273h65.192c3.584 0 6.489-2.944 6.489-6.528zM449.19 563.546v-148.994c0-3.584-2.905-6.489-6.528-6.489h-24.192c-3.584 0-6.528 2.905-6.528 6.489v148.994c0 3.584 2.905 6.528 6.528 6.528h24.192c3.584 0 6.528-2.944 6.528-6.528zM614.017 563.546v-148.994c0-3.584-2.905-6.489-6.528-6.489h-24.064c-2.137 0-4.224 1.063-5.465 2.816l-68.264 92.161v-88.488c0-3.584-2.905-6.489-6.528-6.489h-24.231c-3.584 0-6.528 2.905-6.528 6.489v148.994c0 3.584 2.905 6.528 6.528 6.528h24.064c2.265 0 4.224-1.191 5.543-2.944 0 0 68.186-92.072 68.186-92.072v88.488c0 3.584 2.905 6.528 6.528 6.528h24.231c3.623 0 6.528-2.944 6.528-6.528z" />
<glyph unicode="&#xe954;" glyph-name="link" d="M768 704h-204.8v-102.4h204.8c84.48 0 153.6-69.12 153.6-153.6s-69.12-153.6-153.6-153.6h-204.8v-102.4h204.8c141.312 0 256 114.688 256 256s-114.688 256-256 256zM460.8 294.4h-204.8c-84.48 0-153.6 69.12-153.6 153.6s69.12 153.6 153.6 153.6h204.8v102.4h-204.8c-141.312 0-256-114.688-256-256s114.688-256 256-256h204.8v102.4zM307.2 499.2h409.6v-102.4h-409.6z" />
<glyph unicode="&#xe955;" glyph-name="linkedin" d="M981.414 39.090h9.682l-18.556 28.077c11.352 0 17.361 7.215 17.454 16.048 0 0.344 0 0.729-0.040 1.063 0 12.029-7.254 17.793-22.148 17.793h-24.060v-62.971h9.045v27.439h11.14l17.493-27.439zM963.283 73.642h-10.491v21.287h13.315c6.87 0 14.721-1.113 14.721-10.109 0-10.327-7.931-11.181-17.575-11.181zM737.748 146.225h-128.302v200.914c0 47.918-0.849 109.563-66.73 109.563-66.817 0-77.055-52.18-77.055-106.113v-204.375h-128.255v413.181h123.182v-56.445h1.711c25.133 42.918 71.804 68.567 121.512 66.73 130.052 0 153.978-85.544 153.978-196.777l-0.040-226.683zM192.639 615.89c-41.128 0-74.455 33.324-74.455 74.455s33.324 74.455 74.455 74.455c41.128 0 74.455-33.324 74.455-74.455s-33.324-74.455-74.455-74.455v0zM256.769 146.225h-128.422v413.181h128.422v-413.181zM801.707 883.925h-737.834c-34.855 0.385-63.447-27.56-63.872-62.425v-740.858c0.425-34.905 29.018-62.851 63.872-62.466h737.834c34.947-0.425 63.66 27.52 64.125 62.466v740.9c-0.517 34.947-29.231 62.891-64.125 62.425zM964.395 130.097c-32.599-0.3-58.793-27.003-58.448-59.602 0.3-32.599 27.003-58.793 59.602-58.448 32.599 0.3 58.793 27.003 58.448 59.602-0.3 32.175-26.326 58.156-58.448 58.448h-1.154zM965.759 18.819c-28.583-0.464-53.501 22.268-53.978 50.862s22.316 52.136 50.901 52.612c28.583 0.464 52.136-22.316 52.612-50.901 0-0.3 0-0.557 0-0.849 0.596-27.945-21.591-51.114-49.536-51.711h-1.326z" />
<glyph unicode="&#xe956;" glyph-name="list" d="M96 512h-64c-17.664 0-32-14.336-32-32v-64c0-17.664 14.336-32 32-32h64c17.664 0 32 14.336 32 32v64c0 17.664-14.336 32-32 32zM992 480h-672c-17.664 0-32-14.336-32-32s14.336-32 32-32h672c17.664 0 32 14.336 32 32s-14.336 32-32 32zM96 256h-64c-17.664 0-32-14.336-32-32v-64c0-17.664 14.336-32 32-32h64c17.664 0 32 14.336 32 32v64c0 17.664-14.336 32-32 32zM992 224h-672c-17.664 0-32-14.336-32-32s14.336-32 32-32h672c17.664 0 32 14.336 32 32s-14.336 32-32 32zM96 768h-64c-17.664 0-32-14.336-32-32v-64c0-17.664 14.336-32 32-32h64c17.664 0 32 14.336 32 32v64c0 17.664-14.336 32-32 32zM320 672h672c17.664 0 32 14.336 32 32s-14.336 32-32 32h-672c-17.664 0-32-14.336-32-32s14.336-32 32-32z" />
<glyph unicode="&#xe957;" glyph-name="list_outline" d="M275.822 762.904c-0.166 0.002-0.36 0.004-0.557 0.004-21.742 0-39.367-17.625-39.367-39.367s17.625-39.367 39.367-39.367c0.196 0 0.391 0.001 0.587 0.004h708.505c0.166-0.002 0.36-0.004 0.557-0.004 21.742 0 39.367 17.625 39.367 39.367s-17.625 39.367-39.367 39.367c-0.196 0-0.391-0.001-0.587-0.004h0.030zM275.822 487.363c-0.166 0.002-0.36 0.004-0.557 0.004-21.742 0-39.367-17.625-39.367-39.367s17.625-39.367 39.367-39.367c0.196 0 0.391 0.001 0.587 0.004h708.505c0.166-0.002 0.36-0.004 0.557-0.004 21.742 0 39.367 17.625 39.367 39.367s-17.625 39.367-39.367 39.367c-0.196 0-0.391-0.001-0.587-0.004h0.030zM275.822 211.822c-0.166 0.002-0.36 0.004-0.557 0.004-21.742 0-39.367-17.625-39.367-39.367s17.625-39.367 39.367-39.367c0.196 0 0.391 0.001 0.587 0.004h708.505c0.166-0.002 0.36-0.004 0.557-0.004 21.742 0 39.367 17.625 39.367 39.367s-17.625 39.367-39.367 39.367c-0.196 0-0.391-0.001-0.587-0.004h0.030zM79.007 802.267c-43.013 0-78.726-35.713-78.726-78.726s35.713-78.726 78.726-78.726c43.013 0 78.726 35.713 78.726 78.726s-35.713 78.726-78.726 78.726zM79.007 526.726c-43.013 0-78.726-35.713-78.726-78.726s35.713-78.726 78.726-78.726c43.013 0 78.726 35.713 78.726 78.726s-35.713 78.726-78.726 78.726zM79.007 251.185c-43.013 0-78.726-35.713-78.726-78.726s35.713-78.726 78.726-78.726c43.013 0 78.726 35.713 78.726 78.726s-35.713 78.726-78.726 78.726z" />
<glyph unicode="&#xe958;" glyph-name="list_solid" d="M-22.261 937.739v-267.13h267.13v267.13zM66.783 848.696h89.043v-89.043h-89.043zM333.913 848.696v-89.043h667.826v89.043zM-22.261 581.565v-267.13h267.13v267.13zM66.783 492.522h89.043v-89.043h-89.043zM333.913 492.522v-89.043h667.826v89.043zM-22.261 225.391v-267.13h267.13v267.13zM66.783 136.348h89.043v-89.043h-89.043zM333.913 136.348v-89.043h667.826v89.043z" />
<glyph unicode="&#xe959;" glyph-name="location1" d="M515.664 960.368c-209.904 0-387.664-178.768-387.664-390.544 0-221.76 206.032-448.544 344.624-607.936 0.528-0.64 22.929-25.52 50.528-25.52h2.449c27.6 0 49.84 24.88 50.399 25.52 130.064 149.52 320 396.048 320 607.936 0 211.776-138.656 390.544-380.336 390.544zM528.496 4.816c-1.12-1.12-2.753-2.369-4.193-3.409-1.472 1.008-3.072 2.288-4.255 3.408l-16.737 19.248c-131.391 150.737-311.311 357.152-311.311 545.761 0 177.008 148.224 326.56 323.664 326.56 218.528 0 316.336-164 316.336-326.56 0-143.184-102.128-333.296-303.504-565.008zM513.119 766.592c-106.032 0-192-85.968-192-192s85.968-192 192-192 192 85.968 192 192-85.968 192-192 192zM513.119 446.592c-70.576 0-129.473 58.816-129.473 129.408 0 70.576 57.424 128 128 128 70.624 0 128-57.424 128-128 0.032-70.592-55.903-129.408-126.527-129.408z" />
<glyph unicode="&#xe95a;" glyph-name="location2" d="M762.456 990.655c-137.783 0-250.456-112.673-250.456-250.456 0-41.417 15.98-83.648 36.525-130.446s46.471-96.367 73.050-142.186c53.157-91.638 106.966-168.275 106.966-168.275l33.916-49.569 33.916 49.569c0 0 53.809 76.637 106.966 168.275 26.578 45.819 52.504 95.389 73.050 142.186s36.525 89.029 36.525 130.446c0 137.783-112.673 250.456-250.456 250.456zM343.725 909.778l-332.637-142.186v-800.938l335.246 144.795 333.941-125.228 332.637 142.186v363.944c-26.578-51.037-56.092-99.954-83.485-143.49v-165.666l-208.713-88.703v67.832l-61.31 88.703c-6.522 9.457-14.186 20.708-22.176 32.611v-193.060l-250.456 93.921v620.922l45.656-16.958c4.076 28.209 11.414 55.439 22.176 80.876zM762.456 907.169c92.617 0 166.971-74.354 166.971-166.971 0-16.143-10.11-54.298-28.698-96.53s-44.841-90.171-70.441-134.359c-34.079-58.701-48.754-79.572-67.832-108.27-19.078 28.698-33.753 49.569-67.832 108.27-25.6 44.189-51.852 92.127-70.441 134.359s-28.698 80.387-28.698 96.53c0 92.617 74.354 166.971 166.971 166.971zM303.287 802.813v-619.618l-208.713-88.703v618.313zM762.456 802.813c-34.568 0-62.614-28.046-62.614-62.614s28.046-62.614 62.614-62.614c34.568 0 62.614 28.046 62.614 62.614s-28.046 62.614-62.614 62.614z" />
<glyph unicode="&#xe95b;" glyph-name="location3" d="M512 960.344c-200.676 0-365.96-156.197-365.96-349.949 0-112.956 58.22-243.536 124.449-363.131 66.152-119.455 141.819-226.336 182.761-281.657 0.005-0.005 0.009-0.009 0.014-0.014 28.402-38.996 89.062-38.998 117.467-0.005 40.942 55.295 116.621 162.144 182.779 281.595 66.231 119.584 124.449 250.187 124.449 363.213 0 193.752-165.283 349.949-365.96 349.949zM512 887.152c162.996 0 292.768-124.631 292.768-276.757 0-86.125-51.569-212.714-115.283-327.751-63.603-114.838-137.719-219.67-177.485-273.384-39.767 53.74-113.882 158.608-177.485 273.46-63.715 115.053-115.283 241.641-115.283 327.675 0 152.126 129.772 276.757 292.768 276.757zM512 740.768c-80.412 0-146.384-65.972-146.384-146.384s65.972-146.384 146.384-146.384c80.412 0 146.384 65.972 146.384 146.384s-65.972 146.384-146.384 146.384zM512 667.576c40.856 0 73.192-32.336 73.192-73.192s-32.336-73.192-73.192-73.192c-40.856 0-73.192 32.336-73.192 73.192s32.336 73.192 73.192 73.192z" />
<glyph unicode="&#xe95c;" glyph-name="location4" d="M512 874.667c-165.12 0-298.667-133.547-298.667-298.667 0-224 298.667-554.667 298.667-554.667s298.667 330.667 298.667 554.667c0 165.12-133.547 298.667-298.667 298.667zM298.667 576c0 117.76 95.573 213.333 213.333 213.333s213.333-95.573 213.333-213.333c0-122.88-122.88-306.773-213.333-421.547-88.747 113.92-213.333 299.947-213.333 421.547zM618.667 576c0-58.91-47.756-106.667-106.667-106.667s-106.667 47.756-106.667 106.667c0 58.91 47.756 106.667 106.667 106.667s106.667-47.756 106.667-106.667z" />
<glyph unicode="&#xe95d;" glyph-name="lock" d="M810.666 618.665v42.664c0 164.954-133.723 298.666-298.666 298.666s-298.666-133.723-298.666-298.666v0-42.664h-128.001v-554.669c0-70.687 57.313-128.001 128.001-128.001v0h597.342c70.687 0 128.001 57.313 128.001 128.001v0 554.669zM298.662 661.338c0 117.822 95.518 213.338 213.338 213.338s213.338-95.518 213.338-213.338v0-42.664h-426.667zM853.34 63.996c0-23.566-19.105-42.664-42.664-42.664v0h-597.342c-23.566 0-42.664 19.105-42.664 42.664v0 469.341h682.67zM469.336 362.663h85.337v-170.665h-85.337v170.665z" />
<glyph unicode="&#xe95e;" glyph-name="login" d="M460.8 704l-71.68-71.68 133.12-133.12h-522.24v-102.4h522.24l-133.12-133.12 71.68-71.68 256 256-256 256zM921.6 89.599h-409.6v-102.4h409.6c56.32 0 102.4 46.080 102.4 102.4v716.8c0 56.32-46.080 102.4-102.4 102.4h-409.6v-102.4h409.6v-716.8z" />
<glyph unicode="&#xe95f;" glyph-name="logout" d="M796.444 675.556l-80.213-80.213 89.884-90.453h-464.783v-113.777h464.783l-89.884-89.884 80.213-80.783 227.556 227.556-227.556 227.556zM113.777 846.223h398.223v113.777h-398.223c-62.577 0-113.777-51.2-113.777-113.777v-796.444c0-62.577 51.2-113.777 113.777-113.777h398.223v113.777h-398.223v796.444z" />
<glyph unicode="&#xe960;" glyph-name="loyalty" d="M993.791 469.504l-460.8 460.8c-18.432 18.432-44.032 29.696-72.192 29.696h-358.4c-56.32 0-102.4-46.080-102.4-102.4v-358.4c0-28.16 11.264-53.76 30.208-72.704l460.8-460.8c18.432-18.432 44.032-29.696 72.192-29.696s53.76 11.264 72.192 30.208l358.4 358.4c18.944 18.432 30.208 44.032 30.208 72.192s-11.776 54.272-30.208 72.704zM563.2 37.888l-460.8 461.312v358.4h358.4v0.512l460.8-460.8-358.4-359.424zM307.2 729.6c0-42.415-34.385-76.8-76.8-76.8s-76.8 34.385-76.8 76.8c0 42.415 34.385 76.8 76.8 76.8s76.8-34.385 76.8-76.8zM353.28 419.84c0-29.184 11.776-54.784 30.72-74.24l179.199-179.199 179.199 179.199c18.944 18.944 30.72 45.568 30.72 74.24 0 57.856-47.104 104.96-104.96 104.96-29.184 0-55.296-11.776-74.24-30.72l-30.72-30.72-30.72 30.208c-18.944 19.456-45.568 31.232-74.24 31.232-57.856 0-104.96-47.104-104.96-104.96z" />
<glyph unicode="&#xe961;" glyph-name="mail_close" d="M128 850.286c-70.279 0-128-57.721-128-128v-548.571c0-70.279 57.721-128 128-128h768c70.279 0 128 57.721 128 128v548.571c0 70.279-57.721 128-128 128zM128 777.143h768c31.024 0 54.857-23.833 54.857-54.857v-548.571c0-31.024-23.833-54.857-54.857-54.857h-768c-31.024 0-54.857 23.833-54.857 54.857v548.571c0 31.024 23.833 54.857 54.857 54.857zM841.358 704.321c-8.614-0.048-16.513-3.066-22.735-8.081l0.070 0.055-306.691-238.536-306.691 238.536c-6.222 5.056-14.242 8.118-22.976 8.118-20.2 0-36.575-16.375-36.575-36.575 0-11.934 5.715-22.531 14.558-29.208l0.093-0.067 329.143-256c6.13-4.802 13.952-7.702 22.451-7.702s16.321 2.898 22.531 7.762l-0.080-0.061 329.143 256c8.865 6.746 14.529 17.304 14.529 29.184 0 20.2-16.375 36.575-36.575 36.575-0.067 0-0.134 0-0.201 0h0.010z" />
<glyph unicode="&#xe962;" glyph-name="mail_open" d="M512 880.328c-14.052 0-28.107-3.185-41.023-9.557-0.001 0-0.001 0-0.002 0s-0.001 0-0.002 0v0l-399.256-197.058c-43.652-21.388-71.502-65.877-71.673-114.486 0-0.019 0-0.042 0-0.065s0-0.046 0-0.069v0.003-421.928c0-70.507 58.517-127.989 129.176-127.989h765.648c70.659 0 129.176 57.482 129.176 127.989v421.928c0 0.022 0 0.048 0 0.074s0 0.051 0 0.078v-0.005c-0.194 48.638-28.1 93.134-71.802 114.486l0.134-0.063-399.349 197.103c-0.001 0-0.001 0-0.002 0s-0.001 0-0.002 0v0c-12.917 6.372-26.97 9.557-41.023 9.557zM512 807.214c2.96 0 5.919-0.677 8.664-2.031l399.345-197.099c-0.157 0.073-0.114 0.051-0.072 0.029l0.201-0.096c18.821-9.196 30.674-28.087 30.77-49.031v-421.816c0-30.467-24.399-54.852-56.040-54.852h-765.648c-31.641 0-56.040 24.385-56.040 54.852v421.802c0.073 20.946 11.908 39.847 30.716 49.063 0.229 0.112 0.259 0.129 0.29 0.145l-0.197-0.096 399.345 197.099c2.745 1.354 5.705 2.031 8.664 2.031zM945.405 631.158c-0.080 0.001-0.175 0.001-0.271 0.001-8.519 0-16.357-2.913-22.574-7.797l-295.155-223.537-65.369 50.848c-32.867 25.565-79.386 25.565-112.253 0l-65.003-50.558-295.658 223.338c-6.106 4.741-13.879 7.6-22.32 7.6-20.198 0-36.572-16.373-36.572-36.572 0-12.001 5.781-22.653 14.711-29.321l0.096-0.069 279.953-211.478-170.655-132.729c-8.934-6.742-14.649-17.34-14.649-29.273 0-20.198 16.373-36.572 36.572-36.572 8.734 0 16.753 3.061 23.043 8.171l-0.067-0.053 206.705 160.763c1.334 0.916 2.492 1.824 3.592 2.796l-0.039-0.033 85.189 66.257c0.001 0 0.001 0 0.002 0s0.001 0 0.002 0v0c6.749 5.25 15.699 5.25 22.449 0l295.426-229.783c6.199-4.992 14.168-8.011 22.843-8.011 20.198 0 36.572 16.373 36.572 36.572 0 11.87-5.656 22.42-14.418 29.101l-0.089 0.065-170.297 132.462 279.627 211.776c9.083 6.733 14.906 17.418 14.906 29.464 0 20.101-16.218 36.415-36.283 36.571h-0.015z" />
<glyph unicode="&#xe963;" glyph-name="menu" d="M43.223 746.312c-0.18 0.003-0.39 0.004-0.603 0.004-23.539 0-42.62-19.081-42.62-42.62s19.081-42.62 42.62-42.62c0.212 0 0.423 0.001 0.635 0.004h937.521c0.18-0.003 0.39-0.004 0.603-0.004 23.539 0 42.62 19.081 42.62 42.62s-19.081 42.62-42.62 42.62c-0.212 0-0.423-0.001-0.635-0.004h0.032zM43.223 490.616c-0.18 0.003-0.39 0.004-0.603 0.004-23.539 0-42.62-19.081-42.62-42.62s19.081-42.62 42.62-42.62c0.212 0 0.423 0.001 0.635 0.004h937.521c0.18-0.003 0.39-0.004 0.603-0.004 23.539 0 42.62 19.081 42.62 42.62s-19.081 42.62-42.62 42.62c-0.212 0-0.423-0.001-0.635-0.004h0.032zM43.223 234.92c-0.18 0.003-0.39 0.004-0.603 0.004-23.539 0-42.62-19.081-42.62-42.62s19.081-42.62 42.62-42.62c0.212 0 0.423 0.001 0.635 0.004h937.521c0.18-0.003 0.39-0.004 0.603-0.004 23.539 0 42.62 19.081 42.62 42.62s-19.081 42.62-42.62 42.62c-0.212 0-0.423-0.001-0.635-0.004h0.032z" />
<glyph unicode="&#xe964;" glyph-name="menu_bold" d="M942.4 533.333h-860.8c-45.067 0-81.6-38.133-81.6-85.333s36.533-85.333 81.6-85.333h860.8c45.067 0 81.6 38.133 81.6 85.333s-36.533 85.333-81.6 85.333zM942.4 874.667h-860.8c-45.067 0-81.6-38.133-81.6-85.333s36.533-85.333 81.6-85.333h860.8c45.067 0 81.6 38.133 81.6 85.333s-36.533 85.333-81.6 85.333zM942.4 192h-860.8c-45.067 0-81.6-38.133-81.6-85.333s36.533-85.333 81.6-85.333h860.8c45.067 0 81.6 38.133 81.6 85.333s-36.533 85.333-81.6 85.333z" />
<glyph unicode="&#xe965;" glyph-name="menu_burger" d="M0 490.667h1024v-85.333h-1024v85.333zM0 789.333h1024v-85.333h-1024v85.333zM0 192h1024v-85.333h-1024v85.333z" />
<glyph unicode="&#xe966;" glyph-name="meta" d="M734.914 788.205c-83.966 0-149.581-63.224-209.007-143.559-81.66 103.969-149.923 143.559-231.625 143.559-166.606 0-294.252-216.777-294.252-446.267 0-143.603 69.459-234.183 185.842-234.183 83.753 0 143.987 39.464 251.072 226.672 0 0 44.63 78.841 75.34 133.11 10.749-17.368 22.053-36.046 34.002-56.148l50.212-84.478c97.832-163.661 152.314-219.169 251.072-219.169 113.361 0 176.459 91.811 176.459 238.402-0.085 240.282-130.591 442.039-289.131 442.039zM355.258 385.117c-86.822-136.1-116.852-166.606-165.198-166.606-49.742 0-79.31 43.692-79.31 121.55 0 166.606 83.069 336.918 182.087 336.918 53.628 0 98.43-30.978 167.074-129.223-65.146-99.921-104.651-162.636-104.651-162.636zM849.857 218.51c-49.444 0-73.085 32.641-166.947 183.707l-60.029 100.135c-16.258 26.409-31.832 50.682-46.846 72.958 54.098 83.496 98.729 125.137 151.845 125.137 110.288 0 198.512-162.379 198.512-361.788-0.043-76.023-24.913-120.14-76.535-120.14z" />
<glyph unicode="&#xe967;" glyph-name="minus" d="M810.667 405.333h-597.333v85.333h597.333v-85.333z" />
<glyph unicode="&#xe968;" glyph-name="money1" d="M762.643 813.428c-98.355-2.699-174.617-29.422-248.857-55.214-79.396-27.575-154.353-53.583-258.143-54.643-69.376-1.097-138.864 10.875-207.143 34.501l-48.501 16.786v-624.714l24.357-8.642c63.598-22.491 128.626-35.463 193.358-38.571 10.277-0.475 20.341-0.714 30.215-0.714 110.19 0 194.547 29.231 276.357 57.499 86.235 29.842 167.577 58.016 278.571 52.786 57.563-2.743 115.526-14.385 172.358-34.501l48.785-17.286v624.928l-24.071 8.785c-63.086 22.857-128.251 35.827-193.714 38.643-15.013 0.667-29.521 0.743-43.571 0.357zM764.642 740.786c12.395 0.384 25.145 0.378 38.357-0.143 13.677-0.593 27.361-1.832 41-3.429 9.758-39.999 45.562-69.785 88.571-69.785 6.254 0 12.361 0.687 18.286 1.857v-332.857c-5.925 1.17-12.032 1.857-18.286 1.857-45.195 0-82.466-32.847-89.857-75.929-12.144 1.272-24.299 2.135-36.429 2.714-124.891 5.486-216.985-25.919-306-56.786-86.345-29.915-168.151-58.194-279.072-52.928-13.745 0.662-27.513 1.981-41.286 3.642-9.837 39.887-45.57 69.571-88.5 69.571-6.254 0-12.361-0.687-18.286-1.857v332.857c5.925-1.17 12.032-1.857 18.286-1.857 45.512 0 82.913 33.328 89.929 76.857 25.048-2.618 50.121-4.133 75.072-3.714 115.748 1.17 199.912 30.48 281.356 58.786 71.712 24.96 140.091 48.457 226.857 51.143zM512 630.857c-80.676 0-146.286-82.030-146.286-182.857s65.609-182.857 146.286-182.857c80.676 0 146.286 82.030 146.286 182.857s-65.609 182.857-146.286 182.857zM512 557.714c39.643 0 73.143-50.249 73.143-109.714s-33.499-109.714-73.143-109.714c-39.643 0-73.143 50.249-73.143 109.714s33.499 109.714 73.143 109.714zM786.285 557.714c-30.297 0-54.857-24.56-54.857-54.857s24.56-54.857 54.857-54.857v0c30.297 0 54.857 24.56 54.857 54.857s-24.56 54.857-54.857 54.857v0zM237.715 448c-30.297 0-54.857-24.56-54.857-54.857s24.56-54.857 54.857-54.857v0c30.297 0 54.857 24.56 54.857 54.857s-24.56 54.857-54.857 54.857v0z" />
</font>
</defs>
</svg>
